<svg xmlns="http://www.w3.org/2000/svg" viewBox="0 0 422.93 176.08"><defs><style>.cls-1{fill:#fff;}.cls-2{fill:#6c5220;}</style></defs><g id="Layer_2" data-name="Layer 2"><g id="Layer_1-2" data-name="Layer 1"><path class="cls-1" d="M2,64.9V2.2C2.23,1.1,3.73.1,9.33.1s7.3,1,7.7,2L37.54,47.2,58.24,2.1c.5-1,2-2,7.6-2s7.3.9,7.3,2V64.9c0,1.3-.5,2.2-6.7,2.2s-6.8-.9-6.8-2.2V29.1L43.74,63.4c-.8,1.5-1.5,1.8-6.1,1.8s-5.4-.3-6.2-1.8L15.53,29.1V64.9c0,1.3-.7,2.2-6.7,2.2C2.63,67.1,2,66.2,2,64.9Z"/><path class="cls-1" d="M106.23,64.8V40.3a7.58,7.58,0,0,0-.3-1.8L85.53,3.7A2.65,2.65,0,0,1,85,2.3c0-1.1,1.7-2.2,7.8-2.2,6.3,0,7.7,1,8.4,2.2l12.4,22.4L126,2.3c.7-1.2,2.2-2.2,8.51-2.2,6,0,7.8,1.1,7.8,2.2a2.16,2.16,0,0,1-.6,1.4L121.33,38.5a7.58,7.58,0,0,0-.3,1.8V64.8c0,1.2-1.3,2.3-7.4,2.3S106.23,66,106.23,64.8Z"/><path class="cls-1" d="M179,64.9V2.1c0-1.1,1.4-2,5.2-2,4.8,0,6,.3,6.7,1.2l30.4,40.6V2.2c0-1.2.8-2.2,6.8-2.2,6.2,0,7,1,7,2.2V65.1c0,1.1-1.4,2-5.2,2-4.8,0-6.1-.4-6.7-1.2l-30.4-39.5V64.9c0,1.2-.8,2.2-6.8,2.2C179.83,67.1,179,66.1,179,64.9Z"/><path class="cls-1" d="M253.43,64.3V2.9c0-1.9.9-2.8,2.8-2.8h35.6c4.5,0,5.7,5,5.7,13.5a1.32,1.32,0,0,1-1.3,1.5c-1.6,0-4.2-2.5-19.4-2.5h-7.4a1.33,1.33,0,0,0-1.5,1.5V25.8a1.33,1.33,0,0,0,1.5,1.5h18.1c1.3,0,2.3,1.3,2.3,6.4s-1,6.5-2.3,6.5h-18.1a1.33,1.33,0,0,0-1.5,1.5V53.1a1.33,1.33,0,0,0,1.5,1.5h10c15.2,0,17.7-2.5,19.3-2.5a1.34,1.34,0,0,1,1.4,1.5c0,8.5-1.2,13.5-5.7,13.5h-38.2C254.33,67.1,253.43,66.2,253.43,64.3Z"/><path class="cls-1" d="M391.13,64.8V14.4a1.33,1.33,0,0,0-1.5-1.5h-13.2c-1.3,0-2.3-1.5-2.3-6.6s1-6.2,2.3-6.2h44.2c1.2,0,2.3,1.2,2.3,6.2s-1.1,6.6-2.3,6.6h-13.2a1.33,1.33,0,0,0-1.5,1.5V64.8c0,1.2-1.3,2.3-7.4,2.3S391.13,66,391.13,64.8Z"/><path class="cls-1" d="M0,136.43c0-27.37,20.18-41.77,41.77-41.77,17.11,0,24.31,7.79,24.31,10.15s-4.49,9.2-6.49,9.2c-2.6,0-5.43-3.89-17.35-3.89-12.51,0-23.36,7.67-23.36,26.19,0,18.29,11.8,24.55,25.72,24.55,14.28,0,21-7.2,23.37-7.2,1.18,0,1.77.59,1.77,1.89a31.19,31.19,0,0,1-2.48,10.85c-1.18,3.07-12,9.68-25.25,9.68C20.65,176.08,0,164.16,0,136.43Z"/><path class="cls-1" d="M169.8,172.19v-73c0-2.25,1.06-3.31,3.3-3.31h41.66c5.31,0,6.72,5.9,6.72,15.93a1.58,1.58,0,0,1-1.65,1.77c-1.89,0-4.84-3-22.77-3h-9.8v17.35a1.56,1.56,0,0,0,1.77,1.77h21c1.53,0,2.71,1.29,2.71,7.31s-1.18,7.44-2.71,7.44H189a1.56,1.56,0,0,0-1.77,1.77v26c0,1.41-1.53,2.71-8.73,2.71S169.8,173.6,169.8,172.19Z"/><path class="cls-1" d="M234.23,172.19v-73c0-2.25,1.06-3.31,3.3-3.31h41.65c5.31,0,6.73,5.9,6.73,15.93a1.58,1.58,0,0,1-1.65,1.77c-1.89,0-4.84-3-22.78-3h-9.79v17.35a1.56,1.56,0,0,0,1.77,1.77h21c1.54,0,2.72,1.29,2.72,7.31s-1.18,7.44-2.72,7.44h-21a1.56,1.56,0,0,0-1.77,1.77v26c0,1.41-1.53,2.71-8.73,2.71S234.23,173.6,234.23,172.19Z"/><path class="cls-1" d="M298.65,171.6V99.15c0-2.25,1.06-3.31,3.31-3.31h42c5.31,0,6.73,5.9,6.73,15.93a1.56,1.56,0,0,1-1.53,1.77c-1.89,0-5-3-22.9-3h-8.73a1.56,1.56,0,0,0-1.77,1.77v13.81a1.56,1.56,0,0,0,1.77,1.77h21.36c1.53,0,2.71,1.53,2.71,7.55s-1.18,7.67-2.71,7.67H317.53a1.56,1.56,0,0,0-1.77,1.77v13.45a1.56,1.56,0,0,0,1.77,1.77h11.8c17.94,0,20.89-3,22.78-3a1.58,1.58,0,0,1,1.65,1.77c0,10-1.42,15.93-6.73,15.93H302C299.71,174.9,298.65,173.84,298.65,171.6Z"/><path class="cls-1" d="M367.33,171.6V99.15c0-2.25,1.06-3.31,3.3-3.31h42c5.31,0,6.72,5.9,6.72,15.93a1.56,1.56,0,0,1-1.53,1.77c-1.89,0-5-3-22.89-3h-8.73a1.56,1.56,0,0,0-1.77,1.77v13.81a1.56,1.56,0,0,0,1.77,1.77h21.35c1.54,0,2.72,1.53,2.72,7.55s-1.18,7.67-2.72,7.67H386.21a1.56,1.56,0,0,0-1.77,1.77v13.45a1.56,1.56,0,0,0,1.77,1.77H398c17.93,0,20.88-3,22.77-3a1.58,1.58,0,0,1,1.65,1.77c0,10-1.42,15.93-6.72,15.93H370.63C368.39,174.9,367.33,173.84,367.33,171.6Z"/><path class="cls-2" d="M155.71,148.81c-1,2.76-4.31,7.37-15.16,9.8,3.51-6.38,4.73-13.55,5.1-18.76,2.9-1.18,6.3-1.8,8.34.41a8.34,8.34,0,0,1,1.72,8.55Zm4-5.55a12.24,12.24,0,0,0-2.92-5.56c-1.8-1.94-5.13-3.77-10.95-1.91,0-1.95-.1-3.17-.11-3.3H81.08c-.06.66-2.44,29.31,18.26,38.28H82.42a1.55,1.55,0,0,0,0,.22s-.33,3.79,4.89,5.09h52.17c4.83-1.2,4.91-4.54,4.89-5v-.28H127.43a26.32,26.32,0,0,0,10.21-7.8A39.92,39.92,0,0,0,152,158.26a16.35,16.35,0,0,0,7.25-8.17,12.06,12.06,0,0,0,.43-6.83Z"/><path class="cls-2" d="M125.61,92c-.42.71-.88,1.39-1.34,2.07s-.9,1.34-1.33,2a21.58,21.58,0,0,0-2.13,4.24,13.22,13.22,0,0,0-.57,2.29,10.84,10.84,0,0,0-.12,2.34,11.33,11.33,0,0,0,.38,2.27c.11.36.21.72.35,1.06.07.17.14.35.21.51s.16.33.23.49a15.25,15.25,0,0,0,2.31,3.38c.11.12.21.25.33.36l.33.34.33.33.29.3a13.59,13.59,0,0,1,1,1.14,9.27,9.27,0,0,1,1.4,2.37,6.86,6.86,0,0,1,.5,2.38,8.24,8.24,0,0,1-.24,2.24,11.86,11.86,0,0,1-.68,2,17.24,17.24,0,0,1-1.7,2.93c-.54.77-1,1.33-1.3,1.7l-.49.56s.23-.11.65-.37a14.35,14.35,0,0,0,1.78-1.31,13.76,13.76,0,0,0,2.46-2.71,11.34,11.34,0,0,0,1.16-2.14,9.43,9.43,0,0,0,.66-2.8,8.77,8.77,0,0,0-.4-3.28,10.62,10.62,0,0,0-1.67-3.17,13.75,13.75,0,0,0-1.23-1.42l-.61-.62-.3-.29c-.1-.1-.18-.21-.28-.31a14.82,14.82,0,0,1-2-2.76l-.21-.39c-.07-.13-.13-.26-.19-.39a8.51,8.51,0,0,1-.34-.83,9.09,9.09,0,0,1-.46-1.76,11.17,11.17,0,0,1,.13-3.93,24.08,24.08,0,0,1,1.33-4.25c.29-.73.6-1.47.91-2.22s.61-1.53.86-2.32Z"/><path class="cls-2" d="M100.48,92c-.43.71-.89,1.39-1.34,2.07s-.91,1.34-1.33,2a21,21,0,0,0-2.13,4.24,13.25,13.25,0,0,0-.58,2.29A10.23,10.23,0,0,0,95,105a10.66,10.66,0,0,0,.37,2.27,9.44,9.44,0,0,0,.36,1.06c.07.17.13.35.2.51l.24.49a14.92,14.92,0,0,0,2.31,3.38c.1.12.21.25.32.36l.33.34.33.33.29.3a10.82,10.82,0,0,1,1,1.14,9.32,9.32,0,0,1,1.41,2.37,7.35,7.35,0,0,1,.5,2.38,8.24,8.24,0,0,1-.24,2.24,11,11,0,0,1-.69,2,18,18,0,0,1-1.69,2.93c-.54.77-1,1.33-1.31,1.7l-.48.56s.22-.11.64-.37a13.64,13.64,0,0,0,1.78-1.31,14.08,14.08,0,0,0,2.47-2.71,11.92,11.92,0,0,0,1.15-2.14A9.13,9.13,0,0,0,105,120a8.76,8.76,0,0,0-.39-3.28,10.89,10.89,0,0,0-1.68-3.17,12.64,12.64,0,0,0-1.23-1.42l-.61-.62-.29-.29-.29-.31a15.24,15.24,0,0,1-2-2.76l-.22-.39c-.06-.13-.12-.26-.19-.39s-.23-.55-.34-.83a9.08,9.08,0,0,1-.45-1.76,10.93,10.93,0,0,1,.12-3.93,25,25,0,0,1,1.34-4.25c.29-.73.6-1.47.9-2.22s.61-1.53.87-2.32Z"/><path class="cls-2" d="M113.42,125.69a14.7,14.7,0,0,0,1.8-2.45,15.62,15.62,0,0,0,1.25-2.73,13.91,13.91,0,0,0,.65-2.91c0-.24,0-.49,0-.74s0-.49,0-.73l0-.74c0-.25-.05-.49-.07-.73s-.08-.48-.12-.72l-.07-.36-.09-.35-.09-.35c0-.11-.06-.23-.11-.34l-.23-.68c0-.11-.08-.22-.13-.33l-.14-.33c0-.1-.09-.21-.14-.32s-.11-.21-.16-.32-.21-.41-.32-.62-.24-.39-.36-.59a17.29,17.29,0,0,0-1.59-2.17l-.11-.12-.11-.12-.22-.24-.45-.47c-.26-.29-.52-.56-.78-.84a17,17,0,0,1-2.48-3.45,13.7,13.7,0,0,1-1.31-3.59,16.28,16.28,0,0,1,.14-6.8c.21-1,.49-2,.77-2.91s.6-1.76.89-2.54c.6-1.57,1.16-2.88,1.61-3.95s.8-1.88,1-2.44.34-.83.34-.83l-.55.71c-.37.47-.9,1.18-1.57,2.14s-1.46,2.17-2.31,3.69A28.15,28.15,0,0,0,106,91a18.93,18.93,0,0,0-.73,3.67,14.73,14.73,0,0,0,.18,4.21,14.46,14.46,0,0,0,1.57,4.37,17.48,17.48,0,0,0,3,3.94l.91.87.42.4.21.19.1.1.1.11a17.38,17.38,0,0,1,1.52,1.78l.35.48c.1.17.21.34.32.51a2.07,2.07,0,0,1,.15.25l.15.27.14.26c.05.09.1.18.14.27l.26.56c0,.09.08.19.12.28l.11.29c0,.1.07.19.11.29l.09.3a6.09,6.09,0,0,1,.17.61,14.17,14.17,0,0,1-1.93,10.7Z"/><path class="cls-1" d="M367,63.51,357.59,49.2l-6.66-10.1a2.78,2.78,0,0,0-4.84.37h0a34.88,34.88,0,0,1-4.56,7.47,2.74,2.74,0,0,0-.19,3.28l5.87,8.9L351,64.91c.8,1.2,2.2,2.2,8.5,2.2,6,0,8.1-1.1,8.1-2.2A2.85,2.85,0,0,0,367,63.51ZM331.79,10.12,326.63,2.3c-.7-1.2-2.5-2.2-8.8-2.2-6,0-7.7,1.1-7.7,2.2a2.65,2.65,0,0,0,.5,1.4l10,15.18,14.8,22.43a17.44,17.44,0,0,0,.69-1.68c.55-1.52,1.07-3.09,1.59-4.68a23.09,23.09,0,0,0-2.68-19.9Z"/><path class="cls-2" d="M362.89,41a48.3,48.3,0,0,1-5.3,8.18,50.65,50.65,0,0,1-10.38,9.92c-.15.12-.29.22-.44.32a30,30,0,0,1-12.22,4.66c-.89.15-1.69.24-2.36.29-4.9.42-9-.35-10.75-2a2.85,2.85,0,0,1-1-2.08,3.27,3.27,0,0,1,.54-1.73c1.52-2.47,3.37-3,6.16-3.75a44.79,44.79,0,0,0,8.92-3.36,15.61,15.61,0,0,0,4.06-3,32,32,0,0,0,5.93-9,47.38,47.38,0,0,0,1.91-4.8,34.19,34.19,0,0,0,1.84-8.09c.26-4.23,4.87-15.9,9.85-17,1.25-.29,3.07-.05,4.59,2.68l.05.09C368.21,21.54,367.72,31.46,362.89,41Z"/><path class="cls-2" d="M349.7,12.79C346,14,343.45,18.7,341.27,24.48c-1.8,4.73-3.36,10.2-5.13,15.15a17.44,17.44,0,0,1-.69,1.68c-4.69,10.23-17.71,18.29-21.85,15.54-3.28-2.18-6.16-24.6,7-38,.48-.5,1-1,1.53-1.45a81.57,81.57,0,0,1,9.61-7.31C342.92,3,352.7,1.24,358.35,3.87,365.59,7.23,356.46,10.51,349.7,12.79Z"/></g></g></svg>