<svg id="Layer_1" data-name="Layer 1" xmlns="http://www.w3.org/2000/svg" xmlns:xlink="http://www.w3.org/1999/xlink" viewBox="0 0 1914 1076.63"><defs><style>.cls-1{fill:none;}.cls-2{opacity:0.15;}.cls-3{fill:#bfb3a1;}.cls-4{fill:url(#coffee-background);}</style><pattern id="coffee-background" data-name="coffee-background" width="560.06" height="601.23" patternUnits="userSpaceOnUse" viewBox="0 0 560.06 601.23"><rect class="cls-1" width="560.06" height="601.23"/><g class="cls-2"><path class="cls-3" d="M341.69,523.25c.05.15.08.32.12.48l.1.49c0,.16,0,.33.08.49s.05.33.06.49l0,.5c0,.17,0,.33,0,.5v.25a2.11,2.11,0,0,1,0,.25c0,.17,0,.33,0,.5a6.08,6.08,0,0,1-.59,1.93,5.11,5.11,0,0,1-1.25,1.6,4.31,4.31,0,0,1-.4.32l-.21.15-.21.14c-.15.09-.3.15-.46.23l-.22.12-.12,0-.12,0a6.71,6.71,0,0,1-1,.31l-.49.13-.5.08a15.53,15.53,0,0,1-4,.05,29.15,29.15,0,0,1-3.86-.7c-1.26-.31-2.5-.67-3.72-1.1a56.94,56.94,0,0,1-7-3,45.24,45.24,0,0,1-6.5-3.92,19.22,19.22,0,0,1-1.51-1.25l-.66-.61-.66-.57c-.9-.76-1.85-1.46-2.81-2.15-1.94-1.36-3.95-2.59-6-3.73s-4.11-2.17-6.2-3.09a65.13,65.13,0,0,0-6.32-2.43,47.77,47.77,0,0,0-6.37-1.58,31.35,31.35,0,0,0-6.29-.48h-.38c-.13,0-.26,0-.38,0l-.76.06c-.51,0-1,.14-1.49.21l-.37.06-.36.08-.72.17-.37.09-.38.1-.76.22c-2,.6-4,1.27-5.89,2s-3.75,1.6-5.58,2.51c-.92.45-1.85.92-2.83,1.37a21,21,0,0,1-3.16,1.19,12.35,12.35,0,0,1-3.6.45,13.76,13.76,0,0,1-3.46-.6l-.74-.22-.42-.66h0l1.16.89a7.59,7.59,0,0,1-2.41-1.21,6.23,6.23,0,0,1-1.06-1,5,5,0,0,1-.43-.6,3.45,3.45,0,0,1-.2-.32l-.17-.33a6.37,6.37,0,0,1-.63-2.75,6.13,6.13,0,0,1,.09-1.3,9.08,9.08,0,0,1,.25-1.22,5.27,5.27,0,0,1,.19-.56l.19-.55c.15-.34.3-.69.46-1s.33-.65.51-1,.36-.61.55-.9a25.31,25.31,0,0,1,2.5-3.22,34.37,34.37,0,0,1,2.76-2.77c.47-.44,1-.85,1.45-1.27l.74-.59c.24-.2.49-.4.74-.58a49.93,49.93,0,0,1,6.18-4.08c1-.6,2.12-1.16,3.2-1.67s2.18-1,3.27-1.43a46.81,46.81,0,0,1,6.66-2.05c1.12-.25,2.24-.46,3.36-.61s2.21-.24,3.29-.34l1.62-.1.8-.05.8,0,1.58,0H282c16.65.28,30.48,5.16,39.85,11.63.3.19.58.41.86.62l.84.62.83.6.79.64,1.52,1.26,1.41,1.29.68.63c.23.22.43.44.64.66l1.24,1.28c.21.2.39.43.58.64l.55.64.55.64c.17.2.36.41.52.62a49.67,49.67,0,0,1,5.76,9.12,50.24,50.24,0,0,1,2.43,6l.65,2.1-.85-2a56.27,56.27,0,0,0-2.91-5.77,50.94,50.94,0,0,0-6.26-8.47c-.17-.2-.36-.38-.54-.57l-.56-.58c-.2-.19-.39-.39-.58-.59s-.38-.4-.59-.58l-1.27-1.16-.65-.59-.7-.57c-.47-.38-.93-.77-1.42-1.16l-1.53-1.13c-.26-.18-.51-.38-.79-.56l-.82-.54-.84-.55c-.28-.19-.56-.38-.85-.55l-1.79-1.05c-.3-.18-.62-.34-.94-.5l-.95-.5-1-.5-1-.47-1-.46c-.35-.16-.68-.33-1-.46a67.09,67.09,0,0,0-9.08-3.11,80.91,80.91,0,0,0-10.34-2c-1.82-.25-3.69-.41-5.59-.54l-1.43-.07c-.49,0-1-.06-1.45-.06-1,0-2-.05-2.95,0l-1.49,0-1.5.06-.75,0-.76.06-1.53.12c-1,.11-2,.2-3,.37s-2,.35-3,.59a43.65,43.65,0,0,0-6,1.94c-1,.41-2,.85-3,1.33s-2,1-2.94,1.56a50.34,50.34,0,0,0-5.67,3.78l-.68.53-.67.55c-.43.38-.89.74-1.31,1.14a33.31,33.31,0,0,0-2.45,2.45,22.26,22.26,0,0,0-2.1,2.7c-.16.23-.29.47-.44.71s-.26.47-.39.71-.21.48-.32.72l-.13.35a2.24,2.24,0,0,0-.11.34,4.54,4.54,0,0,0-.15.67,2.6,2.6,0,0,0-.05.61,2.3,2.3,0,0,0,.21,1,1.8,1.8,0,0,0,.6.73,3.42,3.42,0,0,0,1.08.55l.75.24.4.64h0l-1.15-.88a9.85,9.85,0,0,0,2.39.45,7.8,7.8,0,0,0,2.37-.28,33,33,0,0,0,5.31-2.21c1.89-.9,3.88-1.77,5.92-2.53s4.14-1.43,6.28-2l.8-.21.41-.1.43-.1.87-.18c.15,0,.29-.07.44-.09l.44-.06c.58-.07,1.17-.17,1.76-.2l.88-.05a3.39,3.39,0,0,1,.45,0h.44a34.2,34.2,0,0,1,7,.72,56.61,56.61,0,0,1,13.32,4.68,71.82,71.82,0,0,1,6.31,3.45,68.63,68.63,0,0,1,6,4.13c1,.76,2,1.54,2.88,2.4l.69.66.66.66c.38.4.83.78,1.27,1.16a44,44,0,0,0,6,4,56,56,0,0,0,6.7,3.25c1.16.48,2.34.89,3.55,1.26a26.83,26.83,0,0,0,3.67.87,14.82,14.82,0,0,0,3.76.18,6.6,6.6,0,0,0,3.47-1.24,5.22,5.22,0,0,0,1.9-3.2,8.46,8.46,0,0,0,.14-1.95,4,4,0,0,0,0-.49c0-.16,0-.33,0-.49l-.07-.49c0-.17,0-.33-.09-.49Z"/><path class="cls-3" d="M237.92,523.25a4.37,4.37,0,0,0,.08,1.8,11.56,11.56,0,0,0,.54,1.73,24.07,24.07,0,0,0,1.57,3.23,48.23,48.23,0,0,0,4,5.88,66,66,0,0,0,9.83,9.87,61.91,61.91,0,0,0,11.29,7.36,51.23,51.23,0,0,0,12.2,4.37,46.48,46.48,0,0,0,6.24.91l1.56.09.78,0h.77c1,0,2.09,0,3.14,0,4.19-.12,8.3-.45,12.31-1l1.5-.2,1.49-.23L306,557l.74-.13,1.47-.25c1.95-.38,3.87-.77,5.75-1.26.95-.22,1.88-.49,2.8-.75.47-.12.92-.27,1.38-.41s.91-.27,1.36-.43l1.35-.45,1.33-.49c.44-.15.87-.33,1.31-.5s.86-.34,1.29-.53l1.27-.55,1.24-.59c.42-.19.82-.41,1.22-.62l.61-.31.59-.32c.39-.23.79-.44,1.17-.67L332,548c.37-.24.74-.48,1.1-.73s.72-.51,1.07-.76a29,29,0,0,0,3.83-3.37,19.29,19.29,0,0,0,2.85-3.89,4.25,4.25,0,0,0,.27-.52l.25-.51c.15-.37.31-.73.43-1.08a7.8,7.8,0,0,0,.3-1,3.68,3.68,0,0,0,.12-.86,1.06,1.06,0,0,0-.05-.43c0-.05,0,0,0,0a1.46,1.46,0,0,0-.42-.15,4.06,4.06,0,0,0-.84-.07,11.9,11.9,0,0,0-2.14.21c-.74.14-1.51.32-2.27.53-1.52.41-3,.93-4.55,1.47s-3,1.12-4.45,1.71l-2.19.89a6.05,6.05,0,0,1-.63.24l-.67.24-.68.17c-.22.05-.45.12-.68.16a16.92,16.92,0,0,1-5.26.06,27.92,27.92,0,0,1-4.73-1.11c-1.5-.49-2.93-1-4.3-1.64s-2.7-1.24-4-1.9c-2.57-1.31-5-2.69-7.3-4.06-4.64-2.76-8.88-5.47-12.91-7.9-1-.61-2-1.2-3-1.78-.5-.29-.95-.55-1.43-.81s-.95-.49-1.43-.72a38.48,38.48,0,0,0-5.76-2.15,50.86,50.86,0,0,0-10.9-1.85,52.82,52.82,0,0,0-9.2.2c-5.47.59-9.53,2-11.86,3.55a8.94,8.94,0,0,0-1.42,1.16,5.57,5.57,0,0,0-.83,1,4.39,4.39,0,0,0-.22.41c-.06.13-.11.23-.14.31s-.1.26-.1.26,0-.09.07-.27a2.46,2.46,0,0,1,.11-.32,3.65,3.65,0,0,1,.19-.44,6.33,6.33,0,0,1,.74-1.14,9.19,9.19,0,0,1,1.37-1.32c2.27-1.82,6.32-3.59,11.89-4.58a53.89,53.89,0,0,1,9.47-.79c.88,0,1.77,0,2.69.08s1.86.12,2.82.23a46.21,46.21,0,0,1,6,1,38.45,38.45,0,0,1,6.28,2c.53.22,1.06.46,1.59.71l1.56.8c1,.55,2,1.1,3.09,1.68,4.16,2.3,8.5,4.88,13.14,7.46,2.32,1.28,4.71,2.57,7.2,3.77,1.24.61,2.51,1.18,3.81,1.72s2.61,1,4,1.42a24.17,24.17,0,0,0,4.06.89,12.76,12.76,0,0,0,4-.09,4.35,4.35,0,0,0,.46-.11c.15,0,.31-.07.46-.12l.43-.16c.15-.06.28-.1.48-.19l2.22-.93c1.49-.61,3-1.22,4.58-1.8s3.17-1.14,4.87-1.61c.85-.23,1.72-.45,2.64-.62a16.6,16.6,0,0,1,2.92-.29,8.05,8.05,0,0,1,1.71.17,5.35,5.35,0,0,1,2,.81,4.5,4.5,0,0,1,.93.87,4.38,4.38,0,0,1,.64,1.1,5.46,5.46,0,0,1,.36,2.12,8.32,8.32,0,0,1-.23,1.73,12.56,12.56,0,0,1-.45,1.5c-.16.48-.35.93-.55,1.38l-.33.67c-.11.22-.21.46-.34.67a23.28,23.28,0,0,1-3.52,4.76,31.77,31.77,0,0,1-4.43,3.85l-1.2.84-1.24.8-1.26.75c-.42.26-.86.48-1.29.72l-.65.35-.66.32c-.43.22-.87.45-1.32.65l-1.35.61-1.37.58c-.46.19-.92.36-1.39.54s-.92.36-1.4.51l-1.41.5-1.43.45-1.45.43c-.48.13-1,.28-1.45.4-1,.25-1.95.52-2.95.73-2,.47-4,.83-6,1.17l-1.53.24-.77.11-.77.1-1.54.19-1.56.17a123.06,123.06,0,0,1-12.68.62c-1.07,0-2.13,0-3.25-.05h-.41l-.42,0-.83-.05c-.55,0-1.1-.11-1.66-.16a46.94,46.94,0,0,1-6.6-1.21,52.51,52.51,0,0,1-12.61-5.09A62.52,62.52,0,0,1,253,547a66,66,0,0,1-9.48-10.57,47.07,47.07,0,0,1-3.75-6.18,23.69,23.69,0,0,1-1.4-3.37,10.77,10.77,0,0,1-.44-1.78,4.46,4.46,0,0,1,0-1.82Z"/><path class="cls-3" d="M344.34,670.19a9.72,9.72,0,0,0,3.27-1.74,13.57,13.57,0,0,0,2.5-2.69,20.76,20.76,0,0,0,1.83-3.16,29.54,29.54,0,0,0,1.34-3.37,45.18,45.18,0,0,0,1.62-7,58.3,58.3,0,0,0,.6-7.07,57.56,57.56,0,0,0-.24-7c-.11-1.15-.26-2.29-.45-3.41-.05-.28-.09-.56-.15-.84l-.17-.82c-.07-.28-.11-.56-.18-.83l-.21-.82A65.38,65.38,0,0,0,349.28,619c-.49-1-1-2-1.52-2.93s-1.06-1.92-1.62-2.86-1.12-1.86-1.69-2.78c-.29-.46-.59-.9-.88-1.36l-.44-.67-.45-.67c-1.19-1.78-2.46-3.49-3.74-5.16s-2.62-3.28-4-4.83l-1-1.15-.52-.57-.53-.55c-.35-.37-.7-.74-1.06-1.1l-1.08-1.07c-.36-.36-.74-.69-1.1-1s-.73-.69-1.11-1l-1.13-1-1.15-.94c-.38-.31-.77-.6-1.16-.9s-.77-.6-1.18-.86l-1.19-.83L321.5,586a33.78,33.78,0,0,0-5-2.51,72.1,72.1,0,0,0-10.76-3.31,48.09,48.09,0,0,0-5.32-.84,28.73,28.73,0,0,0-5.15-.09c-.41,0-.83.07-1.23.14-.19,0-.4,0-.59.09l-.59.12c-.2,0-.38.09-.58.13s-.38.1-.55.16l-.55.17-.52.21a8.46,8.46,0,0,0-1.82,1,5.59,5.59,0,0,0-1.27,1.4,5.34,5.34,0,0,0-.71,1.72s0,.06,0,.08v.07a.49.49,0,0,0,0,.12.48.48,0,0,0,0,.12s0,.08,0,.12a1.66,1.66,0,0,0,.19.57c.05.11.13.23.2.35s.16.24.26.36.44.5.68.76a19.87,19.87,0,0,0,1.73,1.47c1.24,1,2.6,1.87,4,2.78s2.72,1.81,4.06,2.73a78.2,78.2,0,0,1,7.62,5.88,47.08,47.08,0,0,1,6.35,6.78A38,38,0,0,1,319,622.15c.26,1.35.46,2.57.68,3.8s.43,2.44.66,3.62c.89,4.74,1.85,9.15,2.88,13.19a112.13,112.13,0,0,0,3.38,11,51.43,51.43,0,0,0,4,8.55,21.35,21.35,0,0,0,4.69,5.65,10.8,10.8,0,0,0,4.72,2.3,8.86,8.86,0,0,0,1.88.19h.39l.36,0,.32,0,.29,0c.37,0,.64-.09.83-.12l.27,0-.27.07a8,8,0,0,1-.81.21l-.29.06-.32.05-.37.06-.39,0a9.22,9.22,0,0,1-1.95,0,10.07,10.07,0,0,1-2.45-.59,12.56,12.56,0,0,1-2.71-1.44,21.79,21.79,0,0,1-5.32-5.57,49.75,49.75,0,0,1-4.67-8.56,104.55,104.55,0,0,1-4-11q-1.86-6.09-3.48-13.24c-.27-1.19-.54-2.41-.8-3.64s-.52-2.51-.79-3.69a36.14,36.14,0,0,0-2.54-7.17,36.77,36.77,0,0,0-4.29-6.79,44.5,44.5,0,0,0-6-6.11,77.18,77.18,0,0,0-7.33-5.47c-1.31-.89-2.66-1.76-4-2.66s-2.79-1.84-4.21-2.91a23.26,23.26,0,0,1-2.13-1.81,13,13,0,0,1-1-1.14c-.17-.2-.33-.44-.49-.67a7,7,0,0,1-.44-.77,5.9,5.9,0,0,1-.61-1.86c0-.17,0-.35-.05-.53a3,3,0,0,1,0-.52,4.22,4.22,0,0,1,0-.52l0-.26a1.5,1.5,0,0,1,0-.24,9.8,9.8,0,0,1,1.27-3.08,9.6,9.6,0,0,1,2.26-2.49,12.3,12.3,0,0,1,2.8-1.61l.73-.29.74-.24c.24-.08.49-.14.74-.21s.49-.13.74-.17l.75-.15c.25-.05.49-.07.74-.11.5-.08,1-.11,1.49-.16a34.15,34.15,0,0,1,5.9.12,47.74,47.74,0,0,1,5.8,1A72.72,72.72,0,0,1,318,579.65a37.14,37.14,0,0,1,5.59,2.93l1.32.87,1.28.92c.44.3.84.64,1.26,1s.83.65,1.23,1a73.23,73.23,0,0,1,9,9.06c1.38,1.65,2.72,3.35,4,5.12s2.53,3.57,3.7,5.45l.45.7.43.71c.28.48.58.95.86,1.43.55,1,1.12,1.93,1.65,2.93s1,2,1.56,3,1,2,1.46,3.08c.94,2.08,1.82,4.21,2.57,6.41a55.81,55.81,0,0,1,1.92,6.76l.18.87c.06.29.1.59.15.89l.15.88.12.88q.21,1.78.3,3.57a59.55,59.55,0,0,1-.08,7.19,57.1,57.1,0,0,1-1,7.2,43.13,43.13,0,0,1-2,7.07,32.45,32.45,0,0,1-1.56,3.39,20.78,20.78,0,0,1-2.06,3.12,13.63,13.63,0,0,1-2.71,2.6,9.89,9.89,0,0,1-3.41,1.57Z"/><path class="cls-3" d="M274.34,588.2a7.4,7.4,0,0,0-2.86,2,12.64,12.64,0,0,0-1.86,3,23.61,23.61,0,0,0-1.79,6.68,48.79,48.79,0,0,0,.32,13.56,75.64,75.64,0,0,0,3.16,12.83,93.61,93.61,0,0,0,4.95,11.84,102.13,102.13,0,0,0,6.25,10.76,81.45,81.45,0,0,0,7.34,9.47,66.32,66.32,0,0,0,17.6,14,47.15,47.15,0,0,0,9.77,4,33.45,33.45,0,0,0,4.94,1,21.13,21.13,0,0,0,4.76.06,9.67,9.67,0,0,0,4-1.23,5.41,5.41,0,0,0,.69-.52,4.94,4.94,0,0,0,.51-.59,1.6,1.6,0,0,0,.2-.44.86.86,0,0,0,0-.36,3.66,3.66,0,0,0-.7-1.34,15.65,15.65,0,0,0-1.43-1.59c-1.07-1.06-2.29-2.1-3.49-3.14a80.71,80.71,0,0,1-7-6.58,32.87,32.87,0,0,1-5.41-7.81c-.17-.35-.32-.71-.48-1.07s-.3-.72-.43-1.09a22,22,0,0,1-.71-2.22l-.14-.56,0-.07v0l0-.06-.07-.24c-.11-.33-.21-.66-.32-1-.22-.66-.42-1.32-.64-2-.43-1.3-.87-2.58-1.3-3.84s-.88-2.51-1.32-3.73q-2.64-7.32-5.28-13.7c-1.76-4.24-3.54-8.14-5.26-11.72-.91-1.77-1.73-3.49-2.63-5.08l-.65-1.19c-.22-.39-.42-.79-.65-1.15l-1.32-2.2c-.84-1.44-1.73-2.76-2.59-4s-1.71-2.39-2.55-3.43a31.07,31.07,0,0,0-5-5,15.07,15.07,0,0,0-2.34-1.51,10.61,10.61,0,0,0-2.13-.82,7.86,7.86,0,0,0-3.07-.17l-.45.08-.32.08-.26.06.25-.09.31-.1a3.52,3.52,0,0,1,.45-.13,7.75,7.75,0,0,1,3.17-.11,10,10,0,0,1,2.3.66,16.19,16.19,0,0,1,2.57,1.37,30.52,30.52,0,0,1,5.5,4.81c.94,1,1.89,2.13,2.85,3.34s1.95,2.5,2.9,3.91l1.47,2.17c.26.36.48.76.73,1.14l.73,1.18c1,1.57,1.93,3.27,2.94,5,1.94,3.55,3.91,7.42,5.86,11.65s3.89,8.79,5.82,13.68c.48,1.22.95,2.47,1.43,3.73s.95,2.56,1.42,3.87c.24.65.46,1.31.7,2,.11.33.23.67.35,1l.08.26.06.17,0,.21.13.46c.19.62.39,1.24.63,1.85.12.3.25.6.38.91s.28.6.43.9a29.35,29.35,0,0,0,4.86,6.76,78,78,0,0,0,6.72,6.17c1.21,1,2.47,2.09,3.73,3.32.31.31.62.62.94,1a12.67,12.67,0,0,1,.91,1.1,9.09,9.09,0,0,1,.86,1.34,6.55,6.55,0,0,1,.63,1.75,5.23,5.23,0,0,1,0,2.12,5.53,5.53,0,0,1-.81,1.86,7.56,7.56,0,0,1-1.14,1.33,8.48,8.48,0,0,1-1.33,1,11.3,11.3,0,0,1-2.88,1.28,16.84,16.84,0,0,1-2.91.58,25.09,25.09,0,0,1-5.75-.09,36.47,36.47,0,0,1-5.57-1.15A50.28,50.28,0,0,1,305.49,676a67.8,67.8,0,0,1-18.33-15.26,80.28,80.28,0,0,1-7.36-10.09,101.56,101.56,0,0,1-6-11.31,90.28,90.28,0,0,1-4.58-12.37,74.87,74.87,0,0,1-2.6-13.3,48.75,48.75,0,0,1,.41-13.89,23.91,23.91,0,0,1,2.24-6.73,12.71,12.71,0,0,1,2.09-2.91,7.37,7.37,0,0,1,3-1.89Z"/><path class="cls-3" d="M168.73,628.32a9.75,9.75,0,0,0,1.79,3,14.68,14.68,0,0,0,2.58,2.34,20.82,20.82,0,0,0,3,1.76,31.42,31.42,0,0,0,3.18,1.33,50.55,50.55,0,0,0,13.27,2.54,61,61,0,0,0,6.62.06c.55,0,1.09-.07,1.63-.1s1.09-.09,1.62-.15l.81-.1.8-.11c.53-.07,1.05-.17,1.57-.27a46.06,46.06,0,0,0,6.15-1.65,60.66,60.66,0,0,0,5.87-2.32,85,85,0,0,0,10.86-5.88c1.71-1.09,3.38-2.21,5-3.4.81-.58,1.59-1.2,2.38-1.8l1.14-.93.57-.46.56-.48a64.35,64.35,0,0,0,8.07-8.11l.87-1.09.82-1.11c.28-.36.52-.75.78-1.12l.38-.57c.12-.18.23-.38.35-.57l.35-.58c.11-.19.23-.38.33-.57l.63-1.17.56-1.19.13-.29.12-.3.23-.6c.08-.21.16-.39.24-.61l.21-.64.22-.64.21-.65c.28-.85.53-1.71.77-2.56.47-1.71.87-3.42,1.18-5.12a35.28,35.28,0,0,0,.5-9.92c0-.19-.06-.39-.08-.58l-.09-.58c-.08-.37-.14-.75-.24-1.11a13.47,13.47,0,0,0-.69-2.09l-.22-.48-.24-.45c-.08-.16-.18-.29-.26-.44s-.18-.28-.28-.41a6.42,6.42,0,0,0-1.31-1.34A6.09,6.09,0,0,0,250,576l-.44-.13-.22-.06-.13,0a1.77,1.77,0,0,0-.46,0,3.16,3.16,0,0,0-1.19.69,11.36,11.36,0,0,0-1.37,1.45c-.9,1.12-1.75,2.4-2.58,3.68s-1.67,2.6-2.52,3.89a70.42,70.42,0,0,1-5.47,7.35,41.42,41.42,0,0,1-6.45,6.07,34.51,34.51,0,0,1-7.32,4.24,35.74,35.74,0,0,1-7.63,2.25l-.94.16-.47.07-.45.07-1.77.25-3.45.54c-4.52.73-8.71,1.51-12.57,2.39a103.7,103.7,0,0,0-10.51,2.9,47.87,47.87,0,0,0-8.2,3.57,23.43,23.43,0,0,0-3.09,2.09,14.11,14.11,0,0,0-2.3,2.26,9.44,9.44,0,0,0-2.06,4.5c0,.34-.07.66-.09,1s0,.58,0,.83,0,.25,0,.37,0,.23,0,.34,0,.21,0,.31,0,.19,0,.27a7.47,7.47,0,0,0,.16.77l.06.26-.09-.25a7.17,7.17,0,0,1-.24-.76c0-.08,0-.17-.07-.26s0-.2-.07-.31,0-.22-.07-.34l-.06-.38c0-.26,0-.55-.08-.85a8.44,8.44,0,0,1,0-1,9.1,9.1,0,0,1,.46-2.34,10.87,10.87,0,0,1,1.32-2.61,15.24,15.24,0,0,1,2.26-2.59,23.85,23.85,0,0,1,3.09-2.42,46,46,0,0,1,8.23-4.24A98.11,98.11,0,0,1,194,606.42q5.81-1.62,12.64-3c1.13-.23,2.29-.45,3.46-.67l1.78-.33.45-.08.43-.08.86-.17a33.83,33.83,0,0,0,6.82-2.25,32,32,0,0,0,6.45-4,39.06,39.06,0,0,0,5.73-5.64,68.2,68.2,0,0,0,5-7c.81-1.26,1.61-2.56,2.46-3.89s1.72-2.69,2.8-4.06a15.1,15.1,0,0,1,1.92-2,8.47,8.47,0,0,1,1.31-.94,6.17,6.17,0,0,1,1.72-.67,5.43,5.43,0,0,1,2-.08l.47.08.38.1c.25.07.5.13.74.22a10,10,0,0,1,2.77,1.47,10.47,10.47,0,0,1,2.19,2.22c.16.2.29.42.43.63a6.21,6.21,0,0,1,.39.65c.12.22.25.44.36.66l.31.68a17.59,17.59,0,0,1,.91,2.77c.12.46.2.93.29,1.4.05.23.07.46.11.7s.07.47.09.7a32.9,32.9,0,0,1,.11,5.61,45.21,45.21,0,0,1-.72,5.56q-.53,2.76-1.32,5.49c-.27.91-.55,1.81-.85,2.71l-.23.68-.24.68-.24.67c-.08.23-.19.47-.28.7l-.29.7-.14.35-.17.34c-.22.45-.43.91-.66,1.36l-.73,1.31c-.12.23-.26.44-.39.65l-.4.64c-.14.21-.27.43-.41.63l-.43.61c-.29.41-.57.84-.88,1.22l-.92,1.2-1,1.15a64.55,64.55,0,0,1-8.76,8.4l-.59.49-.61.46-1.23.94c-.83.6-1.66,1.22-2.52,1.8-1.7,1.18-3.47,2.3-5.28,3.37a86.09,86.09,0,0,1-11.46,5.69c-2,.81-4.08,1.54-6.2,2.16a48.65,48.65,0,0,1-6.53,1.45c-.56.08-1.12.16-1.68.21l-.84.08-.85.06c-.56,0-1.12,0-1.69.08s-1.13,0-1.7,0a57.56,57.56,0,0,1-6.8-.4A50.13,50.13,0,0,1,179,637.57a29.94,29.94,0,0,1-3.17-1.55,22.35,22.35,0,0,1-2.95-2,14.66,14.66,0,0,1-2.49-2.55,10,10,0,0,1-1.61-3.17Z"/><path class="cls-3" d="M245.22,563.74a7.52,7.52,0,0,0-2-2.64,12.89,12.89,0,0,0-2.78-1.78,20,20,0,0,0-3.08-1.15,28.68,28.68,0,0,0-3.18-.72,47.52,47.52,0,0,0-12.82-.2,70.51,70.51,0,0,0-12.23,2.49A83.48,83.48,0,0,0,197.77,564a91.13,91.13,0,0,0-10.33,5.58,72.58,72.58,0,0,0-9.1,6.69,62.31,62.31,0,0,0-7.56,7.79,53.13,53.13,0,0,0-5.73,8.68,40.65,40.65,0,0,0-3.56,9.25,29.44,29.44,0,0,0-.78,4.66,20.27,20.27,0,0,0,.11,4.49,10.37,10.37,0,0,0,1.23,3.8,5.35,5.35,0,0,0,.51.71,3.85,3.85,0,0,0,.27.3c.1.09.21.2.31.28a2.75,2.75,0,0,0,.54.37,1.26,1.26,0,0,0,.38.11.94.94,0,0,0,.39,0,2.92,2.92,0,0,0,.59-.27,5.3,5.3,0,0,0,.7-.49c.24-.19.49-.41.74-.64,1-.94,2-2.08,2.93-3.21a76.14,76.14,0,0,1,6.16-6.69,29.72,29.72,0,0,1,7.42-5.15c.68-.32,1.37-.61,2.06-.86a19.92,19.92,0,0,1,2.12-.65l.53-.13.27-.06.13,0h0l.91-.27,1.87-.55c2.48-.75,4.88-1.53,7.21-2.29q7-2.32,13.07-4.66c4-1.57,7.77-3.15,11.19-4.7l2.48-1.19,1.21-.58,1.16-.61,2.24-1.17,2.1-1.21,1-.58,1-.6c.32-.19.63-.4.93-.6s.61-.39.91-.59c1.18-.8,2.27-1.58,3.27-2.37a27,27,0,0,0,4.75-4.65,13.08,13.08,0,0,0,1.38-2.22,8.62,8.62,0,0,0,.69-2,7.12,7.12,0,0,0,0-2.9c0-.16-.07-.3-.1-.42l-.08-.3-.08-.24s0,.08.1.23.07.17.12.29.09.25.14.42a6.44,6.44,0,0,1,.27,1.22,7.34,7.34,0,0,1,0,1.77,9.76,9.76,0,0,1-.54,2.2,13.93,13.93,0,0,1-1.25,2.46,26.84,26.84,0,0,1-4.55,5.21c-1,.89-2,1.78-3.19,2.67l-.88.67c-.3.23-.6.46-.92.68l-.95.67-1,.66-2.06,1.37-2.23,1.33-1.14.69-1.2.66-2.46,1.35c-3.39,1.76-7.1,3.54-11.14,5.3s-8.39,3.49-13.06,5.2c-2.34.84-4.74,1.7-7.25,2.52l-1.89.61-1,.31-.56.14c-.14,0-.29.07-.43.12-.59.16-1.17.36-1.74.57s-1.15.48-1.71.75a26.1,26.1,0,0,0-6.32,4.58c-1,.94-1.95,2-2.9,3s-1.89,2.2-2.87,3.37a44.46,44.46,0,0,1-3.22,3.56c-.32.3-.65.6-1,.89a9.53,9.53,0,0,1-1.21.84,6.49,6.49,0,0,1-1.55.69,5.29,5.29,0,0,1-3.83-.32,7,7,0,0,1-1.44-.94,3.84,3.84,0,0,1-.29-.27l-.29-.26c-.18-.2-.37-.39-.53-.59a10.56,10.56,0,0,1-.89-1.25,14.53,14.53,0,0,1-1.8-5.41,28.49,28.49,0,0,1,.83-10.77,44.15,44.15,0,0,1,4-10.15,55.77,55.77,0,0,1,6.36-9.23,63.42,63.42,0,0,1,8.23-8.06,72.71,72.71,0,0,1,9.74-6.71,90.22,90.22,0,0,1,10.89-5.36,81.52,81.52,0,0,1,11.87-3.86,69.8,69.8,0,0,1,12.67-1.92,47.3,47.3,0,0,1,13.12,1,28,28,0,0,1,3.21.94,18.46,18.46,0,0,1,3.08,1.38,12.41,12.41,0,0,1,2.73,2,7.58,7.58,0,0,1,1.87,2.81Z"/><path class="cls-3" d="M457.47,594.94a5.2,5.2,0,0,0,1.11,2.21,8.47,8.47,0,0,0,1.87,1.61,19.07,19.07,0,0,0,4.49,2,52,52,0,0,0,9.6,1.91c3.23.37,6.46.56,9.67.64s6.4.06,9.57,0c6.33-.2,12.57-.68,18.7-1.33s12.15-1.49,18-2.45c11.81-1.94,23.17-4.38,34-7.28,5.41-1.45,10.69-3,15.81-4.75s10.08-3.6,14.81-5.7c2.36-1,4.66-2.16,6.87-3.35a54.07,54.07,0,0,0,6.22-3.88,26.37,26.37,0,0,0,2.64-2.21l.57-.59c.17-.2.36-.39.51-.59a8.41,8.41,0,0,0,.84-1.19,4.14,4.14,0,0,0,.48-1.11,2.44,2.44,0,0,0,.09-.9,2.2,2.2,0,0,0-.25-.79,3.7,3.7,0,0,0-.67-.85,6.52,6.52,0,0,0-1.05-.83c-.19-.14-.42-.26-.63-.39s-.44-.25-.67-.36a22.22,22.22,0,0,0-3-1.21,47.18,47.18,0,0,0-6.54-1.55,107,107,0,0,0-13.37-1.27c-4.42-.17-8.76-.15-13,0s-8.39.36-12.43.67c-8.08.63-15.75,1.54-23,2.59a344.91,344.91,0,0,0-38,7.67,185.09,185.09,0,0,0-26.74,9,71,71,0,0,0-8.89,4.6,26.09,26.09,0,0,0-5.61,4.48,10.65,10.65,0,0,0-1.46,2,6.54,6.54,0,0,0-.62,1.71,4.65,4.65,0,0,0-.07,1.1c0,.24,0,.37,0,.37l-.06-.37a5.64,5.64,0,0,1,0-1.12,6.5,6.5,0,0,1,.49-1.81,11,11,0,0,1,1.35-2.23,25.87,25.87,0,0,1,5.42-5,69.38,69.38,0,0,1,8.74-5.25A169.29,169.29,0,0,1,500,568.69a299.82,299.82,0,0,1,38.12-9c7.29-1.25,15-2.33,23.25-3.09,4.1-.38,8.32-.68,12.66-.85s8.78-.23,13.35-.09a107.45,107.45,0,0,1,14,1.29c1.2.2,2.41.43,3.62.72s2.44.61,3.67,1a26.58,26.58,0,0,1,3.7,1.5c.3.15.61.32.92.5s.62.36.92.57a11.85,11.85,0,0,1,1.79,1.45,8.75,8.75,0,0,1,1.57,2.06,7.28,7.28,0,0,1,.84,2.71,7.67,7.67,0,0,1-.26,2.77,9.24,9.24,0,0,1-1,2.3,13,13,0,0,1-1.32,1.87c-.23.29-.48.55-.72.82l-.75.76a31.44,31.44,0,0,1-3.19,2.64,56.82,56.82,0,0,1-6.85,4.19c-2.37,1.25-4.79,2.38-7.26,3.44-4.94,2.12-10.06,4-15.32,5.63s-10.66,3.16-16.19,4.52a322.14,322.14,0,0,1-34.58,6.4q-9,1.17-18.3,1.83c-6.2.42-12.51.65-18.91.57-3.2,0-6.42-.16-9.66-.39s-6.49-.57-9.74-1.1a51.65,51.65,0,0,1-9.63-2.42,19.5,19.5,0,0,1-4.47-2.3,8.92,8.92,0,0,1-1.83-1.75,5.24,5.24,0,0,1-1-2.29Z"/><path class="cls-3" d="M619.93,577.51c.34,2.45.51,4.92.62,7.37s.12,4.89.06,7.32a109,109,0,0,1-1.29,14.32q-.55,3.51-1.34,7c-.53,2.28-1.13,4.53-1.82,6.74s-1.45,4.39-2.3,6.52c-.22.53-.42,1.07-.65,1.59s-.46,1-.68,1.57-.48,1-.72,1.54l-.36.77-.39.76c-1,2-2.11,4-3.28,5.9-.3.47-.6.94-.89,1.41s-.62.93-.93,1.39l-.47.69c-.16.23-.32.45-.49.67l-1,1.34a69.35,69.35,0,0,1-18.88,17.28,76.56,76.56,0,0,1-10.84,5.63,89.76,89.76,0,0,1-11.11,3.84l-1.39.37c-.47.13-.92.26-1.39.36l-2.77.63c-.92.2-1.84.37-2.75.55-.46.08-.91.18-1.37.25l-1.37.22c-1.81.32-3.63.52-5.43.74l-2.69.25-.67.06-.67,0-1.33.07-1.32.08-1.33,0-1.31,0H536.1l-2.6,0-2.57-.14a81.08,81.08,0,0,1-9.93-1.3,68.9,68.9,0,0,1-9.25-2.46,70.52,70.52,0,0,1-8.41-3.48,69,69,0,0,1-7.47-4.29,70.61,70.61,0,0,1-6.52-4.83c-2-1.68-3.87-3.42-5.59-5.16s-3.29-3.53-4.74-5.29c-.36-.44-.73-.87-1.07-1.31s-.68-.88-1-1.32c-.65-.88-1.3-1.74-1.9-2.61s-1.18-1.72-1.74-2.56-1.09-1.69-1.59-2.52c-1-1.66-1.92-3.28-2.75-4.84-1.67-3.12-3-6-4.1-8.66a97.57,97.57,0,0,1-4.2-12.21c-.37-1.4-.62-2.47-.77-3.18s-.22-1.08-.22-1.08.1.35.33,1,.58,1.72,1.08,3.08a115,115,0,0,0,5.15,11.71c1.27,2.51,2.78,5.27,4.6,8.22.92,1.47,1.9,3,3,4.55.53.78,1.1,1.56,1.68,2.36s1.19,1.59,1.83,2.39,1.29,1.61,2,2.43l1.05,1.22c.35.41.73.81,1.09,1.22,1.48,1.63,3,3.27,4.78,4.87s3.55,3.18,5.52,4.71a73.27,73.27,0,0,0,6.32,4.37,72.28,72.28,0,0,0,7.15,3.84,70.35,70.35,0,0,0,16.68,5.25,80,80,0,0,0,9.37,1.12l2.43.11,2.45,0h.62l.62,0,1.25,0,1.26,0,1.26-.07,1.27-.07.63,0,.64-.06,2.56-.23c1.72-.22,3.45-.4,5.2-.7l1.31-.2c.44-.07.87-.16,1.31-.24.88-.17,1.76-.32,2.64-.5l2.64-.59c.45-.09.89-.22,1.33-.33l1.33-.34a88.09,88.09,0,0,0,10.59-3.51A74.58,74.58,0,0,0,582.91,658a68.24,68.24,0,0,0,18.29-15.81l1-1.24c.16-.21.33-.41.49-.63l.47-.64c.31-.43.63-.85.93-1.28l.91-1.32c1.18-1.78,2.32-3.61,3.36-5.53l.4-.71.38-.72c.25-.49.51-1,.76-1.47l.72-1.48c.25-.49.46-1,.7-1.5.91-2,1.76-4.09,2.52-6.22s1.47-4.28,2.1-6.49,1.18-4.45,1.67-6.73a116.49,116.49,0,0,0,2.09-14.05c.21-2.4.33-4.82.39-7.27s0-4.9-.13-7.37Z"/><path class="cls-3" d="M454.11,609c-1.26-.61-2.54-1.15-3.82-1.65s-2.57-1-3.85-1.37a52,52,0,0,0-7.74-1.84,32.3,32.3,0,0,0-7.57-.32,19.57,19.57,0,0,0-6.86,1.79,15.22,15.22,0,0,0-5.2,4.14,18.49,18.49,0,0,0-1.83,2.72,25.21,25.21,0,0,0-1.37,3,28.21,28.21,0,0,0-1,3.12c-.06.27-.14.53-.19.8l-.18.79-.08.4c0,.13-.05.26-.07.39s-.09.53-.13.79a23.23,23.23,0,0,0-.17,6.1,19.36,19.36,0,0,0,1.5,5.56,20.87,20.87,0,0,0,3,4.73,32.55,32.55,0,0,0,8.37,6.94c1.52.92,3.07,1.75,4.62,2.5s3.11,1.41,4.64,2c3.09,1.22,6.09,2.22,9,3.06,5.77,1.69,11,2.82,15.59,3.7s8.47,1.48,11.62,1.93,5.56.75,7.18.94l2.45.28s-.83.07-2.47.14-4.07.13-7.28.07-7.18-.22-11.88-.69a124.43,124.43,0,0,1-16.19-2.66,88.77,88.77,0,0,1-9.5-2.79q-2.46-.9-5-2a54.38,54.38,0,0,1-5.07-2.62,40.24,40.24,0,0,1-5-3.42A32.45,32.45,0,0,1,415,641a24.89,24.89,0,0,1-3.55-5.82,22.47,22.47,0,0,1-1.71-6.91,26.3,26.3,0,0,1,.43-7.24l.18-.89c0-.15.06-.3.1-.45l.11-.44c.07-.29.15-.58.23-.88s.17-.58.26-.87a31.87,31.87,0,0,1,1.27-3.49,28.75,28.75,0,0,1,1.76-3.39,22.09,22.09,0,0,1,2.38-3.13,18.63,18.63,0,0,1,3-2.64,17.34,17.34,0,0,1,3.57-1.93,21.36,21.36,0,0,1,7.93-1.47,32.83,32.83,0,0,1,8,1,49.23,49.23,0,0,1,7.72,2.65c1.26.55,2.51,1.14,3.74,1.78s2.44,1.33,3.62,2.08Z"/><path class="cls-3" d="M496.51,672.91c1.08.53,2.19,1,3.29,1.4s2.21.8,3.32,1.15c2.22.71,4.43,1.3,6.63,1.8s4.38.9,6.54,1.24l1.62.24,1.6.21,1.6.19c.53.06,1.06.12,1.59.16a126.27,126.27,0,0,0,23.78-.1c3.69-.36,7.24-.84,10.58-1.42l2.49-.48c.81-.17,1.62-.36,2.42-.54.39-.09.79-.17,1.18-.28l1.17-.3c.77-.2,1.55-.38,2.29-.62l2.23-.65,2.16-.7.53-.17.53-.19,1-.37,1-.36,1-.39c2.67-1,5.15-2.11,7.47-3.22s4.46-2.25,6.45-3.37,3.79-2.26,5.46-3.34,3.16-2.14,4.52-3.12,2.56-1.91,3.62-2.77c2.12-1.7,3.67-3.09,4.7-4s1.52-1.47,1.52-1.47-.37.62-1.21,1.75a54.83,54.83,0,0,1-4,4.81c-.94,1-2,2.12-3.28,3.3l-1,.9-.51.46-.52.46-1.09.94-1.16,1c-1.59,1.28-3.34,2.63-5.3,3.95s-4.09,2.69-6.44,4a78.61,78.61,0,0,1-7.63,3.75l-1,.45c-.35.14-.71.27-1.06.42l-1.08.42-.55.21-.55.2-2.25.79c-.76.25-1.54.48-2.33.73s-1.59.45-2.4.68l-1.22.32c-.41.12-.83.2-1.25.3-.84.19-1.68.4-2.54.57l-2.61.49a110.9,110.9,0,0,1-11,1.25,103.46,103.46,0,0,1-24.52-1.28c-.53-.09-1.07-.2-1.61-.31s-1.08-.2-1.62-.32l-1.62-.37c-.55-.12-1.09-.26-1.63-.4-2.17-.55-4.36-1.19-6.53-1.93s-4.35-1.6-6.49-2.58c-1.08-.49-2.14-1-3.19-1.57a35.87,35.87,0,0,1-3.1-1.82Z"/><path class="cls-3" d="M652.62,654.92a13.71,13.71,0,0,1,.23,3.73,16.4,16.4,0,0,1-.74,3.66,22,22,0,0,1-1.47,3.42,28.14,28.14,0,0,1-2,3.15c-.35.5-.73,1-1.11,1.47l-.58.71-.29.36-.31.34c-.8.93-1.65,1.8-2.51,2.66a66.06,66.06,0,0,1-5.45,4.74,100.21,100.21,0,0,1-11.76,7.8c-4,2.31-8.12,4.37-12.22,6.24A206,206,0,0,1,590,702.43c-4,1.26-8,2.38-12,3.39s-7.87,1.92-11.74,2.72a259.68,259.68,0,0,1-43.51,5.34A173.9,173.9,0,0,1,486,711.61a92.19,92.19,0,0,1-15.19-4,54.74,54.74,0,0,1-6.58-2.91c-.52-.28-1-.54-1.52-.84l-.74-.43-.72-.46-.36-.22-.34-.24-.69-.47-.67-.5-.33-.25-.32-.26a23.85,23.85,0,0,1-2.41-2.17,21.57,21.57,0,0,1-2-2.41,18.76,18.76,0,0,1-1.51-2.63,15.24,15.24,0,0,1-.94-2.76,14.1,14.1,0,0,1-.18-5.35,17.05,17.05,0,0,1,.56-2.39c.12-.38.26-.74.39-1.1s.28-.7.45-1A22.32,22.32,0,0,1,455,677.6a31.25,31.25,0,0,1,2.2-2.79,41.2,41.2,0,0,1,3.89-3.83c1.1-1,2-1.63,2.55-2.08l.89-.67-.81.75c-.54.51-1.34,1.26-2.34,2.3a45.35,45.35,0,0,0-3.5,4.08,33,33,0,0,0-1.92,2.86,22.75,22.75,0,0,0-1.7,3.5c-.13.32-.23.65-.34,1s-.21.67-.29,1a15.12,15.12,0,0,0-.37,2.17,12.46,12.46,0,0,0,.45,4.62,14.18,14.18,0,0,0,.94,2.31A15.4,15.4,0,0,0,456,695a19.74,19.74,0,0,0,1.88,2,21.79,21.79,0,0,0,2.26,1.84l.3.22.31.21.63.42.66.4.33.21.34.19.68.39.7.37c.47.25,1,.47,1.45.72a56,56,0,0,0,6.33,2.47,94.15,94.15,0,0,0,14.73,3.36,189.57,189.57,0,0,0,35.9,1.56,295.31,295.31,0,0,0,42.85-5.08q5.73-1.09,11.61-2.47t11.89-3.05a223,223,0,0,0,24.4-8.29c4.1-1.68,8.19-3.53,12.25-5.61a101.83,101.83,0,0,0,11.89-7.09,65.49,65.49,0,0,0,5.56-4.34c.88-.79,1.76-1.59,2.59-2.45l.31-.32.31-.33.6-.65c.39-.45.79-.9,1.16-1.37a26.53,26.53,0,0,0,2.08-3,20.9,20.9,0,0,0,1.63-3.24,15.71,15.71,0,0,0,.94-3.53,13.48,13.48,0,0,0,0-3.7Z"/><path class="cls-3" d="M512.76,589.61a42.56,42.56,0,0,1-4.66-2.93,49.74,49.74,0,0,1-4.22-3.36,38.18,38.18,0,0,1-6.84-8,24.75,24.75,0,0,1-3.67-9.51,21.31,21.31,0,0,1-.24-2.51c0-.42,0-.84,0-1.25l0-.62c0-.21,0-.42.05-.62a21.17,21.17,0,0,1,.95-4.75,25.13,25.13,0,0,1,1.81-4.27c.37-.69.69-1.25,1-1.84s.65-1.18,1-1.76c1.25-2.32,2.38-4.56,3.33-6.74a44.28,44.28,0,0,0,2.28-6.33,22.84,22.84,0,0,0,.84-5.81c0-.46,0-.91,0-1.35,0-.23,0-.44-.06-.66s-.05-.43-.08-.64-.08-.42-.12-.63-.07-.42-.12-.62-.11-.4-.16-.6a5.72,5.72,0,0,0-.17-.59,19,19,0,0,0-2-4.19,28.24,28.24,0,0,0-2.43-3.3c-.43-.48-.81-.95-1.22-1.36s-.77-.83-1.14-1.19c-.74-.74-1.42-1.36-2-1.9s-1.09-1-1.5-1.34c-.81-.7-1.23-1.08-1.23-1.08l1.46.75c.48.25,1.06.59,1.77,1s1.49.9,2.37,1.52a29,29,0,0,1,6,5.4,20.11,20.11,0,0,1,2.81,4.58c.11.22.19.45.28.68s.17.47.26.71.15.48.23.73l.21.75c.05.26.1.51.16.77s.11.53.14.8c.07.53.16,1.07.18,1.62a24.24,24.24,0,0,1-.55,6.88,42,42,0,0,1-2.27,7.07,73.16,73.16,0,0,1-3.49,7.14c-.33.6-.66,1.2-1,1.8s-.72,1.24-1,1.77A23.09,23.09,0,0,0,498,557.4a18.53,18.53,0,0,0-1,3.88c0,.16-.05.33-.07.5l-.05.51c0,.34,0,.68-.06,1,0,.69,0,1.39.06,2.1a23.69,23.69,0,0,0,2.52,8.57,40.31,40.31,0,0,0,5.55,8.2q1.69,2,3.62,3.84a51.08,51.08,0,0,0,4.12,3.58Z"/><path class="cls-3" d="M541.51,571.09a55,55,0,0,1-5.17-4.29,59.93,59.93,0,0,1-4.58-4.73,53.29,53.29,0,0,1-7.24-10.52,39.13,39.13,0,0,1-3.93-11.62,32.65,32.65,0,0,1,.2-11.72,33,33,0,0,1,1.58-5.37c.17-.42.33-.84.5-1.25s.32-.77.47-1.15.32-.76.47-1.14.31-.76.45-1.13c1.2-3,2.25-5.9,3.13-8.7a64.83,64.83,0,0,0,2-8.06,37.92,37.92,0,0,0,.58-7.34,27.74,27.74,0,0,0-.89-6.45,28.68,28.68,0,0,0-2-5.41c-.18-.42-.41-.8-.61-1.19l-.3-.57-.33-.55c-.21-.36-.41-.73-.63-1.07l-.65-1c-.2-.33-.43-.64-.64-.94s-.42-.61-.63-.89c-.43-.57-.83-1.12-1.22-1.61-1.58-2-2.9-3.46-3.77-4.45l-1.35-1.47s.56.37,1.65,1.14a54.43,54.43,0,0,1,4.6,3.72c.49.44,1,.93,1.51,1.44.27.26.52.54.79.82s.55.57.82.88l.82,1c.28.32.54.68.83,1l.42.54c.13.19.27.38.4.58.27.39.56.77.82,1.2a28.29,28.29,0,0,1,4.5,13,37.18,37.18,0,0,1-.17,8.27,58.51,58.51,0,0,1-1.9,8.79,93.39,93.39,0,0,1-3.23,9.12l-.48,1.17c-.16.39-.33.78-.5,1.16l-.51,1.18-.47,1.11a32.56,32.56,0,0,0-1.5,4.6,30.59,30.59,0,0,0-.76,4.95c-.07.85-.08,1.72-.07,2.59s0,1.76.15,2.64a38.85,38.85,0,0,0,2.75,10.84A57.9,57.9,0,0,0,533.19,561c1.19,1.75,2.47,3.48,3.86,5.18a60.56,60.56,0,0,0,4.46,5Z"/><path class="cls-3" d="M562.05,581a44.13,44.13,0,0,1-4.66-2.93,49.84,49.84,0,0,1-4.22-3.37,37.87,37.87,0,0,1-6.84-8,24.86,24.86,0,0,1-3.67-9.52,21.14,21.14,0,0,1-.24-2.5c0-.42,0-.84,0-1.26,0-.2,0-.41,0-.62s0-.41,0-.61a21.26,21.26,0,0,1,1-4.76,25,25,0,0,1,1.81-4.26c.37-.7.69-1.25,1-1.85s.65-1.17,1-1.75c1.25-2.32,2.38-4.57,3.33-6.75a43.42,43.42,0,0,0,2.28-6.33,22.78,22.78,0,0,0,.84-5.81c0-.46,0-.9,0-1.35,0-.22,0-.44-.06-.65l-.08-.65c0-.21-.08-.42-.12-.63s-.07-.41-.12-.61-.11-.41-.16-.6a5.72,5.72,0,0,0-.17-.59,19.33,19.33,0,0,0-2-4.2,28.8,28.8,0,0,0-2.43-3.3c-.42-.47-.81-.94-1.22-1.35s-.77-.83-1.14-1.19c-.73-.74-1.42-1.36-2-1.91l-1.5-1.34-1.23-1.07s.5.24,1.46.75c.48.25,1.06.59,1.77,1s1.49.91,2.37,1.53a29,29,0,0,1,6,5.4,19.82,19.82,0,0,1,2.81,4.57,7.1,7.1,0,0,1,.28.69c.09.23.18.47.26.7s.15.49.23.74.14.49.21.75.11.51.16.77.11.52.14.79c.07.53.16,1.08.18,1.63a24.26,24.26,0,0,1-.55,6.88,41.61,41.61,0,0,1-2.27,7.06,72.06,72.06,0,0,1-3.49,7.14c-.33.6-.66,1.21-1,1.81l-1,1.77a22.24,22.24,0,0,0-1.63,3.53,18.44,18.44,0,0,0-1,3.87c0,.17-.05.34-.07.51l0,.51c0,.34,0,.68-.06,1,0,.69,0,1.39.06,2.09a23.74,23.74,0,0,0,2.52,8.58,40,40,0,0,0,5.56,8.2q1.68,2,3.62,3.83a49.36,49.36,0,0,0,4.11,3.59Z"/></g><g class="cls-2"><path class="cls-3" d="M498.51,254.39c-.08.14-.14.3-.21.45l-.19.46c-.06.15-.11.31-.17.47s-.11.31-.15.47l-.13.48a4.26,4.26,0,0,0-.1.49l-.05.25,0,.25c0,.16,0,.33-.05.5a5.92,5.92,0,0,0,.22,2,5.26,5.26,0,0,0,.92,1.81c.11.13.22.27.34.39l.18.18.18.18a3.9,3.9,0,0,0,.4.31l.21.16.1.08.11.06a7,7,0,0,0,.89.49l.46.21.47.18a15.35,15.35,0,0,0,3.89.78,28.51,28.51,0,0,0,3.92,0c1.3-.07,2.58-.19,3.86-.38a58,58,0,0,0,7.47-1.62,45.44,45.44,0,0,0,7.12-2.64,17.89,17.89,0,0,0,1.71-.94l.77-.48.76-.44c1-.57,2.09-1.09,3.16-1.58a65,65,0,0,1,6.57-2.55c2.21-.74,4.44-1.37,6.67-1.89s4.45-.92,6.66-1.2A46.89,46.89,0,0,1,561,251a30.72,30.72,0,0,1,6.27.7l.37.08.37.1.74.2c.49.13,1,.32,1.42.48l.36.13.33.15.68.3.34.15.35.18.71.35c1.87,1,3.68,2,5.42,3.09s3.37,2.27,5,3.5c.82.62,1.64,1.25,2.52,1.87a20.25,20.25,0,0,0,2.88,1.76,12,12,0,0,0,3.45,1.12,14.37,14.37,0,0,0,3.52.06l.76-.08.54-.58h0l-1.3.66a7.91,7.91,0,0,0,2.59-.74,6.36,6.36,0,0,0,1.22-.79,6.52,6.52,0,0,0,.55-.5c.08-.1.17-.18.25-.28l.23-.29a6.4,6.4,0,0,0,1.13-2.59,6.51,6.51,0,0,0,.16-1.3,8.49,8.49,0,0,0,0-1.24,5.41,5.41,0,0,0-.07-.58l-.09-.58c-.09-.36-.16-.73-.26-1.09s-.2-.7-.32-1-.24-.67-.38-1a25.63,25.63,0,0,0-1.85-3.62,36.06,36.06,0,0,0-2.2-3.24c-.38-.52-.79-1-1.18-1.51l-.62-.73c-.2-.24-.41-.48-.62-.71a52.61,52.61,0,0,0-5.31-5.16c-.92-.78-1.87-1.53-2.84-2.24s-1.94-1.37-2.94-2a45,45,0,0,0-6.16-3.27c-1.06-.45-2.12-.86-3.19-1.22s-2.12-.64-3.17-.95l-1.57-.4-.77-.19c-.26-.07-.53-.12-.79-.17l-1.55-.34-1.54-.28c-16.41-2.84-30.9-.62-41.31,4-.33.13-.65.29-1,.44l-.94.45-.92.45c-.31.14-.6.32-.9.48l-1.73.95-1.62,1-.79.49c-.26.17-.51.36-.75.53l-1.46,1c-.24.16-.46.35-.68.52l-.67.53-.65.52a7.91,7.91,0,0,0-.63.52,48.23,48.23,0,0,0-7.36,7.88,49.64,49.64,0,0,0-3.52,5.49l-1,1.94,1.21-1.83a58.26,58.26,0,0,1,3.94-5.12,50.55,50.55,0,0,1,7.73-7.15c.2-.17.42-.31.64-.47l.66-.46.67-.47c.23-.15.45-.32.69-.46l1.47-.9c.24-.16.49-.32.75-.46l.79-.43c.53-.29,1.06-.59,1.61-.88l1.71-.82.88-.41.91-.37.93-.39c.31-.12.61-.26.94-.37l2-.7c.33-.12.67-.22,1-.32l1-.31,1-.32,1.08-.26,1.08-.27c.37-.09.73-.2,1.1-.26a67,67,0,0,1,9.5-1.36,82,82,0,0,1,10.54-.06c1.83.1,3.7.29,5.59.51l1.43.2c.47.08,1,.13,1.43.22,1,.17,1.93.32,2.9.53l1.46.3,1.46.35.73.17.74.2,1.47.4c1,.31,2,.59,2.93.94s1.9.72,2.85,1.14a42.74,42.74,0,0,1,5.57,3c.9.58,1.8,1.2,2.68,1.86s1.75,1.35,2.6,2.08a49.66,49.66,0,0,1,4.86,4.77c.2.21.38.43.57.65l.56.66c.35.45.73.9,1.07,1.37a32.9,32.9,0,0,1,2,2.87,21.88,21.88,0,0,1,1.57,3c.11.26.19.51.29.77s.16.52.25.78.12.5.19.76l.05.37a2.39,2.39,0,0,1,0,.36,5.25,5.25,0,0,1,0,.68,3,3,0,0,1-.06.61,2.24,2.24,0,0,1-.39.94,1.91,1.91,0,0,1-.73.6,3.61,3.61,0,0,1-1.16.34l-.79.09-.51.56h0l1.3-.65a9.86,9.86,0,0,1-2.43,0,7.81,7.81,0,0,1-2.28-.71,33.36,33.36,0,0,1-4.8-3.16c-1.7-1.24-3.49-2.46-5.35-3.6s-3.8-2.17-5.79-3.13l-.76-.36-.37-.18-.41-.17-.82-.34-.41-.17-.43-.14c-.56-.18-1.12-.39-1.69-.52l-.86-.22-.43-.1-.44-.08a33.62,33.62,0,0,0-7-.6,56.37,56.37,0,0,0-13.95,2.11c-2.3.62-4.59,1.36-6.85,2.21a70.64,70.64,0,0,0-6.71,2.93c-1.1.56-2.2,1.16-3.27,1.82-.27.17-.54.34-.8.52l-.77.53c-.45.32-1,.61-1.47.9a43.78,43.78,0,0,1-6.68,2.83,55.87,55.87,0,0,1-7.18,1.95c-1.23.25-2.47.44-3.72.58a29.65,29.65,0,0,1-3.77.17,15.06,15.06,0,0,1-3.73-.53,6.52,6.52,0,0,1-3.18-1.87,5.22,5.22,0,0,1-1.27-3.5,8.57,8.57,0,0,1,.23-1.94c0-.16.08-.31.12-.47s.09-.32.14-.48l.16-.47c.06-.15.11-.31.18-.46Z"/><path class="cls-3" d="M600.45,273.75a4.32,4.32,0,0,1-.41,1.76,11,11,0,0,1-.85,1.59A23.55,23.55,0,0,1,597,280a47,47,0,0,1-5.07,5,66.23,66.23,0,0,1-11.5,7.87A62.72,62.72,0,0,1,568,298a51.77,51.77,0,0,1-12.81,2,47.07,47.07,0,0,1-6.3-.27c-.52-.07-1-.12-1.55-.2l-.76-.12-.39-.07-.38-.07c-1-.18-2-.42-3.07-.64q-6.13-1.35-11.92-3.24l-1.43-.47-1.42-.5-.71-.25-.7-.27-1.4-.52c-1.84-.73-3.66-1.48-5.42-2.31-.88-.4-1.75-.83-2.61-1.26-.43-.21-.85-.44-1.27-.66s-.85-.44-1.26-.68l-1.24-.69-1.21-.73c-.41-.23-.8-.49-1.2-.74s-.79-.49-1.17-.76l-1.14-.78-1.11-.81c-.38-.26-.73-.55-1.09-.83l-.54-.42-.52-.43c-.34-.29-.69-.57-1-.87l-1-.9-.95-.92c-.31-.31-.6-.64-.9-1a28.16,28.16,0,0,1-3.13-4,19.08,19.08,0,0,1-2.09-4.35c-.07-.18-.1-.37-.16-.56l-.15-.55c-.08-.39-.17-.77-.22-1.14a10.61,10.61,0,0,1-.11-1.06,4.47,4.47,0,0,1,.05-.87,1,1,0,0,1,.13-.42s0,0,0,0a1.41,1.41,0,0,1,.43-.07,4,4,0,0,1,.85.08,11.51,11.51,0,0,1,2,.62c.71.27,1.43.59,2.14.93,1.42.7,2.82,1.48,4.19,2.3s2.72,1.66,4,2.51l2,1.29.57.35.62.35.63.3c.22.09.43.2.64.28a16.63,16.63,0,0,0,5.16,1,26.79,26.79,0,0,0,4.86-.21,46,46,0,0,0,4.53-.8c1.46-.34,2.88-.71,4.26-1.12,2.77-.81,5.4-1.72,7.93-2.64,5.07-1.84,9.74-3.71,14.15-5.35l3.25-1.19c.55-.19,1-.36,1.56-.52s1-.31,1.54-.44a36.84,36.84,0,0,1,6.06-1.05,51.48,51.48,0,0,1,11,.22,53.79,53.79,0,0,1,9,1.91c5.26,1.61,9,3.73,11,5.7a9.27,9.27,0,0,1,1.18,1.41,6.33,6.33,0,0,1,.61,1.17,4.63,4.63,0,0,1,.15.44c0,.13.07.24.08.33s0,.27,0,.27,0-.09,0-.27a2.75,2.75,0,0,0,0-.34c0-.14-.06-.29-.1-.47a6.45,6.45,0,0,0-.52-1.25,9.23,9.23,0,0,0-1.1-1.56c-1.89-2.21-5.54-4.7-10.83-6.71a52.36,52.36,0,0,0-9.15-2.55c-.86-.16-1.75-.3-2.66-.42s-1.85-.23-2.82-.3a48,48,0,0,0-6-.12,39.4,39.4,0,0,0-6.55.83c-.56.12-1.12.25-1.69.4s-1.15.33-1.69.5c-1.1.34-2.21.7-3.34,1.07-4.52,1.49-9.26,3.2-14.3,4.87-2.52.83-5.11,1.66-7.78,2.37-1.34.36-2.69.68-4.06,1s-2.76.51-4.16.67a24.07,24.07,0,0,1-4.15.11,13.2,13.2,0,0,1-3.88-.82l-.43-.2-.43-.2-.4-.25c-.13-.08-.25-.14-.43-.27l-2-1.32c-1.35-.89-2.73-1.77-4.16-2.63s-2.92-1.71-4.5-2.49c-.79-.39-1.6-.76-2.47-1.1a15.82,15.82,0,0,0-2.82-.83,7.61,7.61,0,0,0-1.71-.15,5.27,5.27,0,0,0-2.08.43,4.66,4.66,0,0,0-1.07.67,4.2,4.2,0,0,0-.83,1,5.25,5.25,0,0,0-.75,2,8.13,8.13,0,0,0-.1,1.74,12.46,12.46,0,0,0,.16,1.56c.07.5.18,1,.28,1.46l.2.72c.07.24.12.49.21.72a23.28,23.28,0,0,0,2.57,5.34,33.09,33.09,0,0,0,3.64,4.61c.34.35.67.71,1,1.05s.71.67,1.06,1l1.1,1c.37.33.76.62,1.13.94l.58.46.59.45c.39.29.77.6,1.18.88l1.21.85,1.24.82c.41.28.84.53,1.26.8s.84.52,1.28.76l1.3.75,1.32.71c.44.24.88.47,1.34.69s.89.46,1.35.67c.91.43,1.82.87,2.76,1.27,1.85.82,3.76,1.56,5.69,2.27l1.46.51.73.26.74.24,1.48.48,1.5.45a122,122,0,0,0,12.34,3c1,.2,2.1.4,3.2.57l.41.06.41.05.83.1c.55.07,1.1.11,1.65.16a48.45,48.45,0,0,0,6.71,0,52.78,52.78,0,0,0,13.35-2.65,63.12,63.12,0,0,0,12.59-5.88,65.48,65.48,0,0,0,11.28-8.62,47.5,47.5,0,0,0,4.84-5.36,26.76,26.76,0,0,0,2-3,14,14,0,0,0,.76-1.67,4.46,4.46,0,0,0,.3-1.8Z"/><path class="cls-3" d="M468.49,398.25a9.46,9.46,0,0,1-2.89-2.32,13.41,13.41,0,0,1-2-3.1,21.07,21.07,0,0,1-1.21-3.45,31,31,0,0,1-.68-3.56,44.32,44.32,0,0,1-.28-7.18,57,57,0,0,1,.72-7.06,61,61,0,0,1,1.54-6.8c.33-1.11.69-2.2,1.08-3.26l.3-.8.33-.78c.11-.26.21-.52.33-.78l.35-.77A65.43,65.43,0,0,1,473.19,347c.66-.88,1.36-1.74,2-2.59s1.4-1.69,2.13-2.5,1.45-1.63,2.18-2.42c.36-.4.74-.78,1.11-1.17l.56-.59.57-.56c1.5-1.53,3.06-3,4.63-4.38s3.19-2.73,4.82-4l1.23-.93.62-.47.62-.44c.42-.3.83-.6,1.25-.88l1.26-.85c.42-.29.85-.55,1.28-.82s.84-.54,1.28-.78l1.28-.76,1.31-.7c.43-.24.87-.46,1.31-.67s.87-.45,1.32-.63l1.32-.59,1.34-.53a32.29,32.29,0,0,1,5.37-1.54A71.34,71.34,0,0,1,523.21,317a47.84,47.84,0,0,1,5.38.16,30.31,30.31,0,0,1,5.07.88c.4.12.8.23,1.18.36.19.07.39.13.57.21l.56.22c.19.07.36.16.54.24s.35.16.52.26l.5.27.47.3a8.19,8.19,0,0,1,1.59,1.36,5.35,5.35,0,0,1,1,1.61,5.29,5.29,0,0,1,.38,1.83.2.2,0,0,1,0,.08v.07s0,.08,0,.12,0,.08,0,.12,0,.08,0,.12a1.54,1.54,0,0,1-.29.52,3.48,3.48,0,0,1-.26.3c-.11.1-.2.21-.33.31a7.78,7.78,0,0,1-.81.61,17.37,17.37,0,0,1-2,1.13c-1.41.71-2.91,1.35-4.4,2s-3,1.27-4.5,1.93a78.5,78.5,0,0,0-8.59,4.35,47.39,47.39,0,0,0-7.5,5.48,38.1,38.1,0,0,0-9.89,14c-.51,1.27-.93,2.44-1.38,3.61s-.88,2.31-1.32,3.43c-1.77,4.49-3.53,8.64-5.3,12.42A109.07,109.07,0,0,1,489,385.42a50.82,50.82,0,0,1-5.53,7.65,21.33,21.33,0,0,1-5.65,4.67,10.89,10.89,0,0,1-5.07,1.39,9.5,9.5,0,0,1-1.88-.17l-.39-.07-.34-.09-.32-.08-.28-.09c-.35-.11-.61-.21-.78-.28l-.26-.1.25.13c.16.08.41.21.76.35l.27.12.31.11.34.12.39.11a10.29,10.29,0,0,0,1.92.33,10,10,0,0,0,2.51-.13,11.63,11.63,0,0,0,2.93-.9,21.82,21.82,0,0,0,6.27-4.48,50.33,50.33,0,0,0,6.19-7.54,102.71,102.71,0,0,0,6-10.09q3-5.62,5.9-12.36c.48-1.11,1-2.25,1.46-3.42s1-2.37,1.46-3.48a35.36,35.36,0,0,1,9.32-12.43,43.84,43.84,0,0,1,7-4.9,77.29,77.29,0,0,1,8.21-4c1.45-.62,2.94-1.22,4.47-1.86s3.09-1.28,4.68-2.07a23.28,23.28,0,0,0,2.43-1.38,14,14,0,0,0,1.23-.92c.2-.17.41-.38.6-.57a6.34,6.34,0,0,0,.58-.67,5.83,5.83,0,0,0,.95-1.72,4.28,4.28,0,0,0,.15-.51,3.06,3.06,0,0,0,.1-.51,4.8,4.8,0,0,0,.05-.52v-.51a9.78,9.78,0,0,0-.67-3.26,9.48,9.48,0,0,0-1.76-2.87,12.35,12.35,0,0,0-2.44-2.1l-.67-.42-.68-.38-.69-.34c-.23-.1-.46-.22-.7-.31l-.7-.28c-.24-.1-.48-.17-.71-.25-.48-.17-1-.3-1.44-.43a32.09,32.09,0,0,0-5.81-1,50.31,50.31,0,0,0-5.89-.13,72.65,72.65,0,0,0-11.83,1.44,36,36,0,0,0-6,1.84l-1.46.6-1.43.67c-.48.21-.94.47-1.41.7s-.94.49-1.4.75A73.16,73.16,0,0,0,489,326c-1.66,1.37-3.3,2.79-4.89,4.29s-3.15,3-4.65,4.66l-.57.61-.55.62c-.37.41-.75.82-1.12,1.24-.72.85-1.46,1.69-2.16,2.57s-1.4,1.75-2.1,2.65-1.36,1.81-2,2.75c-1.31,1.87-2.58,3.79-3.73,5.81a57.62,57.62,0,0,0-3.14,6.29l-.34.82c-.12.28-.21.56-.32.84l-.3.84c-.1.28-.19.57-.29.85-.36,1.13-.68,2.28-1,3.44a57.94,57.94,0,0,0-1.26,7.08,56.58,56.58,0,0,0-.38,7.26,43.18,43.18,0,0,0,.68,7.33,28,28,0,0,0,.89,3.61,20.89,20.89,0,0,0,1.44,3.46,13.74,13.74,0,0,0,2.18,3.06,9.54,9.54,0,0,0,3.06,2.17Z"/><path class="cls-3" d="M552.56,330.77a7.27,7.27,0,0,1,2.42,2.54,12,12,0,0,1,1.28,3.24,23.89,23.89,0,0,1,.52,6.89,49.08,49.08,0,0,1-2.85,13.26,75.86,75.86,0,0,1-5.5,12,92.69,92.69,0,0,1-7.07,10.71,103.16,103.16,0,0,1-8.14,9.41,83.16,83.16,0,0,1-9,7.93,66.41,66.41,0,0,1-19.91,10.52,47.33,47.33,0,0,1-10.35,2.1,33.85,33.85,0,0,1-5,0,21.37,21.37,0,0,1-4.7-.83,9.64,9.64,0,0,1-3.67-2A4.76,4.76,0,0,1,480,406a3.61,3.61,0,0,1-.4-.68,1.2,1.2,0,0,1-.11-.46.87.87,0,0,1,.07-.36,3.59,3.59,0,0,1,.93-1.18,15.13,15.13,0,0,1,1.7-1.3c1.26-.84,2.64-1.63,4-2.43a80.55,80.55,0,0,0,8.11-5.16,32.64,32.64,0,0,0,6.77-6.66c.24-.31.46-.64.68-1s.43-.65.63-1c.4-.67.76-1.36,1.1-2.05l.25-.52,0-.07h0l0-.05.13-.23.49-.91c.34-.61.66-1.22,1-1.81.67-1.2,1.34-2.38,2-3.54s1.32-2.3,2-3.41q4-6.72,7.74-12.48c2.52-3.84,5-7.34,7.36-10.53,1.21-1.57,2.35-3.11,3.53-4.5l.86-1.05c.29-.34.55-.69.85-1l1.7-1.91c1.1-1.26,2.22-2.39,3.3-3.45s2.12-2,3.15-2.9a30.51,30.51,0,0,1,5.8-4,15.23,15.23,0,0,1,2.58-1.05,9.92,9.92,0,0,1,2.24-.4,7.55,7.55,0,0,1,3.05.4,3.86,3.86,0,0,1,.43.17l.31.13.24.11-.23-.14-.29-.16-.42-.2a7.65,7.65,0,0,0-3.09-.71,11,11,0,0,0-2.39.22,14.91,14.91,0,0,0-2.77.88,29.92,29.92,0,0,0-6.3,3.69c-1.12.82-2.26,1.74-3.43,2.74s-2.38,2.1-3.57,3.31l-1.86,1.86c-.32.31-.61.65-.92,1l-.94,1c-1.28,1.36-2.51,2.86-3.83,4.39-2.56,3.12-5.23,6.56-7.93,10.35s-5.46,7.91-8.26,12.36c-.71,1.11-1.4,2.24-2.11,3.39s-1.41,2.34-2.12,3.54c-.35.59-.7,1.2-1.05,1.81l-.53.93-.13.24-.09.16-.09.19-.22.43a19,19,0,0,1-1,1.7c-.17.28-.36.55-.54.82l-.59.81a29.27,29.27,0,0,1-6,5.73,78.32,78.32,0,0,1-7.75,4.81c-1.39.79-2.82,1.6-4.28,2.56-.37.25-.74.5-1.11.78s-.74.57-1.1.91a10.27,10.27,0,0,0-1.1,1.16,6.82,6.82,0,0,0-.94,1.6,5.39,5.39,0,0,0-.37,2.09,5.81,5.81,0,0,0,.45,2,7.39,7.39,0,0,0,.88,1.52,8.41,8.41,0,0,0,1.11,1.26,11.5,11.5,0,0,0,2.58,1.79,16.09,16.09,0,0,0,2.76,1.11,25.27,25.27,0,0,0,5.66,1,36,36,0,0,0,5.69-.09,50.16,50.16,0,0,0,11.24-2.42,67.88,67.88,0,0,0,20.86-11.56,81.4,81.4,0,0,0,9.11-8.55,99.89,99.89,0,0,0,8-10,89.82,89.82,0,0,0,6.81-11.3,75.24,75.24,0,0,0,5-12.58,49.2,49.2,0,0,0,2.19-13.72,24.4,24.4,0,0,0-1-7,12.74,12.74,0,0,0-1.51-3.24,7.38,7.38,0,0,0-2.61-2.42Z"/><path class="cls-3" d="M648.83,389.89a9.84,9.84,0,0,1-2.33,2.64,14.18,14.18,0,0,1-3,1.82,21.12,21.12,0,0,1-3.26,1.17,30.44,30.44,0,0,1-3.36.71,50.59,50.59,0,0,1-13.52,0,60.25,60.25,0,0,1-6.51-1.18c-.54-.12-1.06-.27-1.59-.4s-1-.29-1.56-.46L613,394l-.77-.26c-.51-.16-1-.37-1.5-.56A47.2,47.2,0,0,1,605,390.4a62.32,62.32,0,0,1-5.33-3.38,85,85,0,0,1-9.58-7.8c-1.47-1.39-2.9-2.81-4.25-4.27-.69-.73-1.34-1.48-2-2.21l-.95-1.13-.48-.57-.46-.57A64.39,64.39,0,0,1,575.5,361l-.66-1.23c-.19-.42-.39-.83-.59-1.25s-.37-.83-.56-1.25l-.26-.62c-.09-.21-.16-.42-.24-.63l-.24-.63c-.08-.21-.16-.42-.22-.63-.13-.42-.27-.84-.4-1.27s-.21-.84-.32-1.26l-.08-.32-.06-.32-.12-.63c0-.21-.08-.41-.11-.64l-.1-.67-.09-.67-.09-.67c-.11-.89-.19-1.78-.27-2.67-.15-1.76-.22-3.52-.2-5.24a34.41,34.41,0,0,1,1.36-9.84c0-.19.12-.37.18-.56s.13-.37.2-.55c.14-.35.27-.72.44-1.05a12.67,12.67,0,0,1,1.07-1.92l.3-.43.32-.4c.11-.14.23-.26.34-.38s.23-.25.35-.35a6.47,6.47,0,0,1,1.54-1.07,5.84,5.84,0,0,1,1.72-.54c.15,0,.31,0,.46-.05h.35a1.34,1.34,0,0,1,.45.1,2.89,2.89,0,0,1,1,.89,11.07,11.07,0,0,1,1.08,1.68c.67,1.27,1.27,2.69,1.85,4.1s1.15,2.87,1.75,4.29a69.7,69.7,0,0,0,4,8.24,41.34,41.34,0,0,0,5.2,7.17,34.67,34.67,0,0,0,6.41,5.53,36.2,36.2,0,0,0,7.07,3.64l.9.33.44.16.43.14,1.69.59,3.29,1.17q6.46,2.33,11.91,4.69a105.18,105.18,0,0,1,9.78,4.81,47.68,47.68,0,0,1,7.39,5,22.74,22.74,0,0,1,2.65,2.63,14.51,14.51,0,0,1,1.83,2.65,9.22,9.22,0,0,1,1.18,4.81,7,7,0,0,1-.08.95c0,.29-.09.57-.16.82l-.09.36c0,.11-.07.22-.1.33l-.09.29c0,.09-.07.18-.1.26a6.89,6.89,0,0,1-.31.73l-.1.24.13-.23a7.7,7.7,0,0,0,.37-.7l.13-.25.12-.29c0-.1.09-.21.13-.32a3,3,0,0,0,.13-.36,6.74,6.74,0,0,0,.24-.82,8.58,8.58,0,0,0,.18-1,9.14,9.14,0,0,0,0-2.39,10.48,10.48,0,0,0-.81-2.81,14.67,14.67,0,0,0-1.73-3,24.59,24.59,0,0,0-2.58-3,47.15,47.15,0,0,0-7.3-5.7,96.63,96.63,0,0,0-9.72-5.46q-5.42-2.69-11.86-5.29c-1.07-.44-2.17-.88-3.28-1.31l-1.69-.65-.42-.17-.41-.16c-.27-.11-.54-.21-.81-.33a33.21,33.21,0,0,1-6.28-3.48,32.24,32.24,0,0,1-5.6-5.09,38.43,38.43,0,0,1-4.58-6.62,67.35,67.35,0,0,1-3.65-7.83c-.56-1.39-1.11-2.81-1.69-4.28s-1.19-3-2-4.51a15.27,15.27,0,0,0-1.51-2.36,8.06,8.06,0,0,0-1.11-1.17,6.57,6.57,0,0,0-1.56-1,5.55,5.55,0,0,0-1.92-.45h-.49l-.39,0a6.94,6.94,0,0,0-.77.08,10.15,10.15,0,0,0-5.55,2.7,5.5,5.5,0,0,0-.54.54,5.37,5.37,0,0,0-.51.56c-.16.19-.32.39-.47.59l-.43.6a16.84,16.84,0,0,0-1.42,2.55c-.21.44-.37.88-.55,1.32-.08.22-.15.45-.23.67s-.16.45-.22.68a32.51,32.51,0,0,0-1.16,5.49,45.33,45.33,0,0,0-.33,5.59c0,1.88.1,3.76.28,5.64.09.94.2,1.89.33,2.83l.09.71.12.7.11.71c0,.24.09.49.14.74l.15.74.08.37.09.37c.13.48.26,1,.4,1.46l.48,1.43c.07.24.17.47.26.7l.28.7c.09.23.17.47.28.7l.3.68c.21.46.41.93.64,1.37s.45.89.68,1.34.48.88.73,1.32a65.36,65.36,0,0,0,7,9.88l.49.59.51.57c.35.38.69.77,1,1.15.71.75,1.41,1.51,2.14,2.24,1.45,1.48,3,2.9,4.56,4.29a85.6,85.6,0,0,0,10.2,7.73,64.75,64.75,0,0,0,5.69,3.28,48.76,48.76,0,0,0,6.14,2.65c.54.17,1.07.36,1.62.51l.81.24.82.21c.54.15,1.09.27,1.64.4s1.11.24,1.66.34a61,61,0,0,0,6.76.88,50.76,50.76,0,0,0,13.83-.77,31.09,31.09,0,0,0,3.4-.93,22.93,22.93,0,0,0,3.27-1.39,14.77,14.77,0,0,0,2.92-2.05,9.93,9.93,0,0,0,2.18-2.81Z"/><path class="cls-3" d="M585.73,312.17a7.53,7.53,0,0,1,2.48-2.22,12.62,12.62,0,0,1,3.06-1.22,18.77,18.77,0,0,1,3.24-.56,27.25,27.25,0,0,1,3.26-.11,47.57,47.57,0,0,1,12.63,2.19A71.19,71.19,0,0,1,622,315a83.87,83.87,0,0,1,10.35,6.29,92.17,92.17,0,0,1,9.11,7.41,71.76,71.76,0,0,1,7.68,8.27,62.43,62.43,0,0,1,6,9.06,53.72,53.72,0,0,1,4,9.6,41.49,41.49,0,0,1,1.77,9.75,30.93,30.93,0,0,1-.11,4.73,20.39,20.39,0,0,1-.94,4.38,10.63,10.63,0,0,1-1.92,3.51,5.86,5.86,0,0,1-.63.6,3.59,3.59,0,0,1-.33.25l-.35.21a2.41,2.41,0,0,1-.6.26,1,1,0,0,1-.4.05.93.93,0,0,1-.37-.12,2.34,2.34,0,0,1-.53-.37,5.81,5.81,0,0,1-.6-.61c-.2-.24-.41-.5-.6-.77-.8-1.11-1.54-2.41-2.29-3.7a76.26,76.26,0,0,0-4.8-7.72,29.36,29.36,0,0,0-6.33-6.45c-.6-.44-1.23-.85-1.86-1.23s-1.29-.73-2-1l-.5-.23-.25-.11-.13-.05s0,0,0,0h0l-.84-.43-1.73-.89c-2.3-1.2-4.51-2.41-6.66-3.6-4.29-2.38-8.28-4.73-12-7s-7-4.55-10.12-6.71l-2.22-1.63-1.07-.8-1-.81-2-1.57c-.63-.54-1.24-1.06-1.83-1.58l-.89-.76c-.29-.25-.56-.51-.84-.77s-.54-.51-.81-.76l-.78-.75c-1-1-1.94-2-2.77-2.94a26.25,26.25,0,0,1-3.79-5.45,13,13,0,0,1-1-2.44,9.08,9.08,0,0,1-.3-2.13,6.85,6.85,0,0,1,.54-2.85c.06-.16.12-.29.17-.4s.1-.21.14-.28l.12-.22-.14.21a1.68,1.68,0,0,0-.17.26c-.07.11-.14.23-.22.38a6.62,6.62,0,0,0-.49,1.16,7.53,7.53,0,0,0-.35,1.73,9.42,9.42,0,0,0,.12,2.26,13.17,13.17,0,0,0,.77,2.65,26.4,26.4,0,0,0,3.5,6c.78,1,1.66,2.13,2.63,3.22.24.28.49.55.74.82s.51.56.78.84l.8.84.86.83,1.78,1.74,1.93,1.72,1,.89,1.05.87,2.17,1.78c3,2.36,6.32,4.81,10,7.29s7.59,5,11.86,7.54c2.14,1.27,4.35,2.56,6.65,3.83l1.75,1,.92.49.51.24.41.19c.55.27,1.08.58,1.6.89s1,.68,1.54,1.06A25.92,25.92,0,0,1,643,368.5c.8,1.11,1.55,2.29,2.29,3.52s1.44,2.52,2.19,3.85A46.12,46.12,0,0,0,650,380c.25.35.52.7.83,1.06a9.2,9.2,0,0,0,1,1.05,6.45,6.45,0,0,0,1.39,1,5.22,5.22,0,0,0,3.82.39,6.77,6.77,0,0,0,1.59-.65l.34-.2.33-.22a7.36,7.36,0,0,0,.63-.47,10.18,10.18,0,0,0,1.11-1.06,14.41,14.41,0,0,0,2.77-5,28.22,28.22,0,0,0,1.2-10.74A43.74,43.74,0,0,0,663,354.4a54.48,54.48,0,0,0-4.52-10.26,63.8,63.8,0,0,0-6.58-9.45,73.43,73.43,0,0,0-8.32-8.42,90,90,0,0,0-9.7-7.29,82.32,82.32,0,0,0-10.93-6,70.45,70.45,0,0,0-12.1-4.25,47.42,47.42,0,0,0-13.06-1.51,27,27,0,0,0-3.34.32,20,20,0,0,0-3.28.78,12.74,12.74,0,0,0-3,1.45,7.65,7.65,0,0,0-2.36,2.41Z"/><path class="cls-3" d="M371.38,303.22a5.08,5.08,0,0,1-1.5,2,8.27,8.27,0,0,1-2.14,1.23,18.76,18.76,0,0,1-4.78,1.16,52.51,52.51,0,0,1-9.79.08c-3.24-.24-6.45-.66-9.62-1.18s-6.3-1.14-9.39-1.82c-6.19-1.38-12.23-3-18.13-4.8s-11.65-3.73-17.27-5.78c-11.24-4.1-21.95-8.62-32.05-13.49-5-2.44-9.94-5-14.65-7.62s-9.23-5.42-13.48-8.36c-2.13-1.47-4.18-3-6.12-4.57a53.78,53.78,0,0,1-5.39-5,27.63,27.63,0,0,1-2.18-2.66c-.16-.23-.3-.46-.45-.68s-.28-.46-.4-.68a10.18,10.18,0,0,1-.6-1.33,4.44,4.44,0,0,1-.26-1.18,2.33,2.33,0,0,1,.08-.9,2.26,2.26,0,0,1,.39-.73,3.45,3.45,0,0,1,.82-.7,6.33,6.33,0,0,1,1.19-.63c.21-.1.45-.18.68-.27l.73-.23a22.23,22.23,0,0,1,3.17-.62,46.64,46.64,0,0,1,6.71-.3,107,107,0,0,1,13.37,1.25c4.37.65,8.63,1.48,12.78,2.39s8.17,1.92,12.08,3c7.83,2.12,15.19,4.44,22.09,6.83a345.16,345.16,0,0,1,35.86,14.62,186.55,186.55,0,0,1,24.59,13.84,71.55,71.55,0,0,1,7.87,6.18,25.77,25.77,0,0,1,4.67,5.45,10.16,10.16,0,0,1,1.06,2.29,6.66,6.66,0,0,1,.29,1.79,5.05,5.05,0,0,1-.13,1.1c-.07.24-.1.36-.1.36s.05-.12.13-.36a4.84,4.84,0,0,0,.22-1.09,6.43,6.43,0,0,0-.14-1.87,11,11,0,0,0-.91-2.45,25.79,25.79,0,0,0-4.39-5.92,70.16,70.16,0,0,0-7.61-6.79,169.22,169.22,0,0,0-24.18-15.25,302,302,0,0,0-35.77-16c-6.92-2.59-14.33-5.1-22.26-7.38q-5.94-1.71-12.28-3.19c-4.23-1-8.59-1.87-13.1-2.58a106.91,106.91,0,0,0-14-1.35c-1.21,0-2.44,0-3.69,0s-2.5.15-3.79.32a25.76,25.76,0,0,0-3.91.78c-.33.09-.67.2-1,.32s-.67.24-1,.39a11.91,11.91,0,0,0-2,1.09,8.52,8.52,0,0,0-1.92,1.72,7.18,7.18,0,0,0-1.32,2.51,7.37,7.37,0,0,0-.27,2.77,9.66,9.66,0,0,0,.55,2.45,13.68,13.68,0,0,0,.95,2.08c.17.33.37.63.56.94s.39.6.59.89a30.51,30.51,0,0,0,2.64,3.18,57.19,57.19,0,0,0,6,5.41c2.09,1.66,4.26,3.23,6.49,4.73,4.46,3,9.15,5.77,14,8.39s9.89,5.09,15.06,7.45a321.81,321.81,0,0,0,32.78,12.75c5.74,1.88,11.62,3.63,17.64,5.21s12.17,3,18.47,4.09c3.16.56,6.34,1,9.56,1.42s6.49.65,9.78.73a50.94,50.94,0,0,0,9.92-.58,19,19,0,0,0,4.81-1.42,9.27,9.27,0,0,0,2.12-1.37,5.14,5.14,0,0,0,1.41-2.07Z"/><path class="cls-3" d="M215,255.78c-.79,2.35-1.42,4.74-2,7.13s-1,4.78-1.43,7.17a111,111,0,0,0-1.4,14.32c-.08,2.37-.07,4.73,0,7.07s.28,4.67.53,7,.62,4.58,1.05,6.83c.12.56.22,1.12.34,1.68s.26,1.11.38,1.67.28,1.1.42,1.65l.21.83.24.81c.6,2.18,1.33,4.32,2.12,6.41.21.52.41,1,.61,1.56s.44,1,.66,1.53l.33.77c.11.25.23.5.35.75l.71,1.5a69.75,69.75,0,0,0,15.32,20.49,77.12,77.12,0,0,0,9.6,7.56,91.2,91.2,0,0,0,10.2,5.85l1.3.62c.43.21.86.42,1.29.61l2.6,1.14c.87.36,1.74.7,2.61,1,.43.17.86.36,1.3.51l1.3.47c1.73.65,3.47,1.19,5.19,1.74l2.6.75.65.18.65.16,1.29.33,1.29.31,1.3.28,1.28.27.65.13c.21.05.43.08.64.12l2.56.44,2.55.34a79.26,79.26,0,0,0,10,.58,67.45,67.45,0,0,0,9.54-.7A68.17,68.17,0,0,0,321,363a72.63,72.63,0,0,0,7.3-3.53c2.29-1.28,4.44-2.64,6.46-4s3.88-2.85,5.64-4.31c.44-.37.88-.72,1.3-1.09l1.24-1.1c.81-.75,1.61-1.47,2.36-2.21s1.48-1.48,2.19-2.2,1.38-1.45,2-2.18c1.3-1.43,2.5-2.86,3.6-4.23,2.23-2.76,4.08-5.37,5.65-7.75a96.36,96.36,0,0,0,6.4-11.21c.63-1.31,1.07-2.31,1.36-3s.41-1,.41-1-.17.33-.52,1-.89,1.58-1.64,2.82a113.7,113.7,0,0,1-7.24,10.55c-1.72,2.22-3.72,4.65-6.06,7.21-1.17,1.28-2.42,2.59-3.77,3.91-.67.68-1.37,1.33-2.09,2s-1.46,1.35-2.24,2-1.57,1.34-2.39,2l-1.25,1c-.42.34-.87.65-1.3,1-1.76,1.32-3.61,2.64-5.6,3.89s-4.08,2.46-6.3,3.6a72.76,72.76,0,0,1-7,3.11,69.94,69.94,0,0,1-7.74,2.44,70.57,70.57,0,0,1-17.37,2.05,82.4,82.4,0,0,1-9.41-.65l-2.41-.34-2.42-.43c-.2,0-.41-.07-.61-.12l-.61-.13-1.22-.26-1.22-.26-1.23-.31-1.23-.3-.62-.16-.61-.18-2.48-.7c-1.64-.53-3.31-1-5-1.66l-1.25-.44c-.42-.15-.83-.32-1.25-.48-.82-.33-1.66-.64-2.49-1l-2.49-1.07c-.43-.17-.83-.37-1.24-.56l-1.24-.59a88.63,88.63,0,0,1-9.76-5.42,76.3,76.3,0,0,1-9.2-6.95,71.1,71.1,0,0,1-8.23-8.64,69.85,69.85,0,0,1-6.79-10.31l-.73-1.4-.36-.71-.34-.71c-.22-.48-.46-1-.68-1.44s-.42-1-.64-1.47c-.83-2-1.61-4-2.27-6.05l-.26-.77-.24-.79c-.16-.52-.32-1.05-.47-1.57l-.43-1.6c-.15-.53-.27-1.07-.41-1.6-.51-2.16-1-4.35-1.32-6.58s-.64-4.48-.85-6.77-.33-4.59-.38-6.93a113.22,113.22,0,0,1,.57-14.19c.24-2.39.57-4.8,1-7.21s.88-4.82,1.51-7.22Z"/><path class="cls-3" d="M372.07,317.64c1.35-.37,2.7-.66,4.05-.91s2.71-.46,4.05-.62a52,52,0,0,1,7.94-.37,32.17,32.17,0,0,1,7.5,1.1,19.32,19.32,0,0,1,6.4,3,15.22,15.22,0,0,1,4.34,5,18.66,18.66,0,0,1,1.29,3,23.59,23.59,0,0,1,.79,3.19,29.68,29.68,0,0,1,.38,3.25c0,.27,0,.54,0,.82s0,.54,0,.81v.41c0,.13,0,.26,0,.4s0,.53,0,.79a22.78,22.78,0,0,1-1,6,18.57,18.57,0,0,1-2.51,5.18,21.12,21.12,0,0,1-3.8,4.09,32.52,32.52,0,0,1-9.52,5.26q-2.51.93-5,1.59c-1.66.44-3.31.81-4.94,1.13-3.25.61-6.39,1-9.39,1.32-6,.59-11.36.71-16,.73s-8.59-.13-11.77-.27-5.6-.31-7.23-.42-2.45-.19-2.45-.19.8.23,2.39.6,4,.89,7.14,1.44,7.1,1.11,11.81,1.53A122.82,122.82,0,0,0,373,366a92.1,92.1,0,0,0,9.84-1q2.6-.42,5.29-1.05a54.48,54.48,0,0,0,5.47-1.63,39.37,39.37,0,0,0,5.54-2.43,30.21,30.21,0,0,0,5.34-3.58,23.87,23.87,0,0,0,4.58-5.05,22.54,22.54,0,0,0,3-6.47,26.33,26.33,0,0,0,.93-7.19c0-.3,0-.61,0-.91,0-.15,0-.31,0-.46l0-.45-.06-.9c0-.31-.06-.61-.09-.91a31.51,31.51,0,0,0-.6-3.67A27.87,27.87,0,0,0,411,326.7a21.61,21.61,0,0,0-1.74-3.51,18.83,18.83,0,0,0-2.48-3.17,18,18,0,0,0-3.14-2.56,21.4,21.4,0,0,0-7.53-2.92,32.39,32.39,0,0,0-8-.48,49.32,49.32,0,0,0-8.08,1.16c-1.34.3-2.68.66-4,1.06s-2.64.84-3.94,1.36Z"/><path class="cls-3" d="M318.48,372.53c-1.16.32-2.33.56-3.49.77s-2.32.37-3.48.51c-2.31.28-4.59.45-6.85.53s-4.47.07-6.66,0l-1.63-.07-1.62-.09-1.6-.12-1.59-.13a126.66,126.66,0,0,1-23.35-4.54c-3.55-1-6.95-2.17-10.13-3.37l-2.35-.94c-.77-.31-1.52-.65-2.27-1-.38-.16-.75-.31-1.12-.49l-1.09-.51c-.72-.35-1.44-.67-2.13-1L247.05,361l-2-1.09-.49-.26-.48-.29-1-.55-.95-.55-.91-.57c-2.43-1.49-4.67-3-6.74-4.56s-4-3-5.71-4.52-3.3-2.92-4.74-4.29-2.7-2.69-3.86-3.91-2.16-2.36-3-3.4c-1.77-2.07-3-3.72-3.86-4.84s-1.22-1.73-1.22-1.73.25.67.86,1.94a56.39,56.39,0,0,0,3.07,5.48c.73,1.18,1.6,2.46,2.6,3.86l.79,1.06.41.54c.14.19.28.37.43.55.29.37.58.75.89,1.13l1,1.16c1.32,1.56,2.79,3.21,4.47,4.87s3.52,3.41,5.58,5.12a78.91,78.91,0,0,0,6.81,5.1c.31.21.61.43.93.63l1,.61,1,.62.49.31.51.3,2.06,1.19c.71.39,1.43.77,2.15,1.15s1.48.75,2.23,1.12l1.15.55c.38.19.77.35,1.16.52.79.34,1.58.7,2.4,1l2.47,1c3.37,1.24,6.89,2.33,10.6,3.3a103.83,103.83,0,0,0,24.33,3.31h1.64c.55,0,1.1,0,1.65,0l1.66,0,1.68-.09c2.24-.14,4.5-.36,6.78-.69a69.43,69.43,0,0,0,6.85-1.32c1.15-.28,2.29-.59,3.43-.94a35,35,0,0,0,3.38-1.22Z"/><path class="cls-3" d="M168.47,325.73a13.76,13.76,0,0,0-.92,3.62,15.6,15.6,0,0,0,0,3.74,20.76,20.76,0,0,0,.8,3.64,26.75,26.75,0,0,0,1.34,3.45c.25.56.53,1.11.81,1.65l.44.81.22.4.24.4c.61,1.06,1.28,2.07,2,3.08a66.72,66.72,0,0,0,4.47,5.67,101,101,0,0,0,10.1,9.87c3.53,3,7.16,5.79,10.83,8.4a207.41,207.41,0,0,0,22.34,13.64q5.59,3,11.15,5.57t11,4.85a259,259,0,0,0,41.75,13.38,174.87,174.87,0,0,0,36.49,4.62,93.06,93.06,0,0,0,15.67-1.12,57.44,57.44,0,0,0,7-1.63c.56-.18,1.11-.34,1.65-.54l.8-.29.8-.31.39-.16.38-.17.77-.33.75-.37.37-.18.37-.19a23.93,23.93,0,0,0,2.76-1.69,21.46,21.46,0,0,0,2.43-2,18.54,18.54,0,0,0,2-2.3,15.24,15.24,0,0,0,1.43-2.54,14,14,0,0,0,1.18-5.22,16.31,16.31,0,0,0-.11-2.45c0-.4-.11-.78-.18-1.16s-.14-.74-.24-1.1a23,23,0,0,0-1.36-3.89,30.65,30.65,0,0,0-1.64-3.15,43,43,0,0,0-3.11-4.49c-.9-1.14-1.63-2-2.12-2.52l-.75-.81.66.88c.43.6,1.08,1.48,1.87,2.7a45.43,45.43,0,0,1,2.68,4.66,32.62,32.62,0,0,1,1.35,3.16,22.67,22.67,0,0,1,1,3.76c.07.34.11.69.16,1s.07.71.08,1.07a14.63,14.63,0,0,1,0,2.19,12.3,12.3,0,0,1-1.3,4.46,13,13,0,0,1-1.35,2.09,16,16,0,0,1-1.81,1.88,19.66,19.66,0,0,1-2.23,1.63,21.52,21.52,0,0,1-2.56,1.39L349,405l-.35.14-.7.3-.72.27-.36.14-.37.13-.74.25-.76.24c-.51.16-1,.28-1.56.43a55.37,55.37,0,0,1-6.68,1.25,94.54,94.54,0,0,1-15.1.56,190.65,190.65,0,0,1-35.56-5.17,296,296,0,0,1-41.15-13q-5.41-2.14-10.94-4.59c-3.68-1.63-7.39-3.36-11.12-5.22A222.87,222.87,0,0,1,200.47,368c-3.71-2.42-7.39-5-11-7.8a104.85,104.85,0,0,1-10.36-9.18,67.68,67.68,0,0,1-4.65-5.31c-.72-.94-1.43-1.89-2.08-2.89l-.25-.37-.24-.38-.47-.76c-.3-.51-.61-1-.89-1.56a27.69,27.69,0,0,1-1.49-3.28,20.94,20.94,0,0,1-1-3.48,15.38,15.38,0,0,1-.27-3.65,13.37,13.37,0,0,1,.68-3.64Z"/><path class="cls-3" d="M318.06,287.67a44.75,44.75,0,0,0,5.13-2,49.15,49.15,0,0,0,4.77-2.52,38.06,38.06,0,0,0,8.21-6.54,25,25,0,0,0,5.38-8.66,20.84,20.84,0,0,0,.7-2.42c.08-.41.18-.82.23-1.23l.1-.61c0-.21,0-.42.07-.62a21.81,21.81,0,0,0,0-4.85,25.48,25.48,0,0,0-1-4.53c-.24-.74-.45-1.35-.66-2s-.42-1.27-.62-1.9c-.8-2.51-1.48-4.93-2-7.25a45.52,45.52,0,0,1-1.05-6.64,23,23,0,0,1,.26-5.87c.06-.45.19-.88.29-1.32a6.55,6.55,0,0,1,.19-.63c.06-.21.12-.41.19-.62s.16-.4.23-.59.15-.4.24-.59l.27-.56a5.52,5.52,0,0,1,.28-.54,18.83,18.83,0,0,1,2.7-3.76,29.36,29.36,0,0,1,3-2.79c.5-.38,1-.77,1.44-1.1s.92-.67,1.35-1c.86-.59,1.65-1.07,2.32-1.5s1.25-.76,1.72-1l1.41-.83-1.57.46c-.52.16-1.16.39-1.92.65s-1.64.62-2.62,1.06a28.72,28.72,0,0,0-6.9,4.19,19.69,19.69,0,0,0-3.62,4c-.15.2-.27.41-.4.62l-.39.65c-.13.22-.23.45-.36.68l-.34.69c-.1.25-.2.49-.31.73s-.21.5-.29.76c-.16.51-.35,1-.48,1.56a24.78,24.78,0,0,0-.74,6.86,42.54,42.54,0,0,0,.92,7.37,71.35,71.35,0,0,0,2.09,7.66c.21.65.43,1.31.67,2s.48,1.35.68,1.92a23.76,23.76,0,0,1,1,3.78,18.87,18.87,0,0,1,.22,4c0,.16,0,.34,0,.5l-.05.51c0,.35-.09.68-.13,1-.12.68-.26,1.37-.45,2.05A23.61,23.61,0,0,1,334,274.8a40.68,40.68,0,0,1-7,7q-2,1.62-4.27,3.09a50.56,50.56,0,0,1-4.71,2.76Z"/><path class="cls-3" d="M293.27,264.11a56.6,56.6,0,0,0,5.88-3.25,63.42,63.42,0,0,0,5.39-3.8,53.93,53.93,0,0,0,9.07-9,39.4,39.4,0,0,0,6-10.69,32.63,32.63,0,0,0,2-11.55,33.92,33.92,0,0,0-.55-5.57c-.09-.44-.17-.88-.26-1.32s-.17-.81-.25-1.22-.17-.8-.25-1.2-.15-.8-.23-1.2c-.61-3.17-1.11-6.21-1.45-9.12a65.29,65.29,0,0,1-.46-8.3,38.07,38.07,0,0,1,.8-7.32,28.84,28.84,0,0,1,2.07-6.17,29.45,29.45,0,0,1,3-4.94c.26-.37.55-.71.82-1l.41-.51.42-.48c.28-.31.54-.63.82-.93l.82-.86c.27-.29.55-.54.81-.81l.79-.75c.53-.48,1-.94,1.5-1.36,1.92-1.68,3.49-2.85,4.53-3.66s1.6-1.2,1.6-1.2l-1.83.81a52.79,52.79,0,0,0-5.22,2.81c-.56.33-1.14.73-1.75,1.13-.31.2-.61.43-.93.66s-.65.45-1,.71l-1,.78c-.34.27-.67.57-1,.87l-.51.45-.51.49c-.34.33-.7.66-1,1a28.45,28.45,0,0,0-3.92,5.13,29.17,29.17,0,0,0-2.94,6.82,37.69,37.69,0,0,0-1.37,8.17,57.94,57.94,0,0,0,.22,9,95.16,95.16,0,0,0,1.47,9.57c.08.41.17.82.25,1.24s.19.82.28,1.23.19.84.28,1.26.17.78.26,1.17A31.49,31.49,0,0,1,317,226a30.22,30.22,0,0,1-.18,5c-.09.85-.24,1.7-.41,2.55s-.38,1.72-.64,2.57A38.78,38.78,0,0,1,311,246.24a58,58,0,0,1-7.7,9.47q-2.24,2.25-4.75,4.36a61.75,61.75,0,0,1-5.31,4Z"/><path class="cls-3" d="M271.24,270.05a43.89,43.89,0,0,0,5.12-2,48,48,0,0,0,4.77-2.52,38.36,38.36,0,0,0,8.21-6.54,25,25,0,0,0,5.38-8.66,20.84,20.84,0,0,0,.7-2.42c.08-.41.18-.82.24-1.23l.09-.62c0-.2.05-.41.07-.61a20.67,20.67,0,0,0-.05-4.85,24.63,24.63,0,0,0-1-4.53c-.24-.75-.44-1.35-.66-2s-.42-1.27-.62-1.9c-.79-2.51-1.48-4.93-2-7.25a45.59,45.59,0,0,1-1.06-6.64,23.9,23.9,0,0,1,.26-5.87c.07-.46.2-.89.3-1.32a4.54,4.54,0,0,1,.18-.63l.19-.62.24-.59a6.07,6.07,0,0,1,.24-.59c.09-.19.18-.37.26-.56s.18-.37.28-.55a19.07,19.07,0,0,1,2.71-3.75,29.31,29.31,0,0,1,3-2.79c.51-.39,1-.78,1.45-1.11s.91-.66,1.35-.95c.85-.59,1.64-1.07,2.31-1.5s1.26-.76,1.73-1l1.41-.83-1.58.46c-.52.16-1.15.39-1.92.65s-1.64.61-2.62,1.06a29.36,29.36,0,0,0-6.9,4.18,20,20,0,0,0-3.61,4c-.15.2-.27.41-.4.62l-.39.65c-.13.22-.24.45-.36.68s-.24.46-.35.69l-.3.73c-.1.25-.21.5-.29.75-.17.52-.36,1-.48,1.57a24.78,24.78,0,0,0-.74,6.86,41.59,41.59,0,0,0,.92,7.37,71.89,71.89,0,0,0,2.08,7.66c.22.65.44,1.31.67,2s.48,1.34.68,1.92a22.73,22.73,0,0,1,.95,3.78,18.87,18.87,0,0,1,.23,4l0,.5-.05.51c0,.35-.09.68-.13,1a18.81,18.81,0,0,1-.45,2,23.76,23.76,0,0,1-4.07,8,40.68,40.68,0,0,1-7,7c-1.35,1.08-2.78,2.11-4.27,3.09a50.56,50.56,0,0,1-4.71,2.76Z"/></g><g class="cls-2"><path class="cls-3" d="M-102.59,594.94a5.2,5.2,0,0,0,1.11,2.21,8.47,8.47,0,0,0,1.87,1.61,19.07,19.07,0,0,0,4.49,2,52,52,0,0,0,9.6,1.91c3.23.37,6.46.56,9.67.64s6.4.06,9.57,0c6.33-.2,12.57-.68,18.7-1.33s12.14-1.49,18-2.45c11.81-1.94,23.17-4.38,34-7.28,5.41-1.45,10.69-3,15.81-4.75s10.08-3.6,14.81-5.7c2.36-1,4.66-2.16,6.87-3.35a54.94,54.94,0,0,0,6.22-3.88,25.15,25.15,0,0,0,2.63-2.21l.58-.59c.17-.2.36-.39.51-.59a8.41,8.41,0,0,0,.84-1.19,4.49,4.49,0,0,0,.48-1.11,2.44,2.44,0,0,0,.09-.9,2.2,2.2,0,0,0-.25-.79,3.7,3.7,0,0,0-.67-.85,6.52,6.52,0,0,0-1-.83c-.19-.14-.42-.26-.63-.39s-.44-.25-.67-.36a22.77,22.77,0,0,0-3-1.21A47.18,47.18,0,0,0,40.51,562a107,107,0,0,0-13.37-1.27c-4.42-.17-8.76-.15-13,0s-8.39.36-12.43.67c-8.08.63-15.75,1.54-23,2.59a344.91,344.91,0,0,0-38,7.67,185.09,185.09,0,0,0-26.74,9,71,71,0,0,0-8.89,4.6,26.09,26.09,0,0,0-5.61,4.48,10.65,10.65,0,0,0-1.46,2,6.54,6.54,0,0,0-.62,1.71,5.42,5.42,0,0,0-.08,1.1l0,.37-.06-.37a5.64,5.64,0,0,1,0-1.12,6.17,6.17,0,0,1,.49-1.81,10.6,10.6,0,0,1,1.35-2.23,25.87,25.87,0,0,1,5.42-5,69.38,69.38,0,0,1,8.74-5.25,168.9,168.9,0,0,1,26.6-10.47,299.82,299.82,0,0,1,38.12-9c7.29-1.25,15-2.33,23.25-3.09,4.1-.38,8.32-.68,12.66-.85s8.78-.23,13.35-.09a107.77,107.77,0,0,1,14,1.29c1.2.2,2.41.43,3.62.72s2.44.61,3.67,1a26.47,26.47,0,0,1,3.69,1.5c.31.15.62.32.93.5s.61.36.92.57A11.85,11.85,0,0,1,56,562.68a8.75,8.75,0,0,1,1.57,2.06,7.09,7.09,0,0,1,.83,2.71,7.46,7.46,0,0,1-.25,2.77,9.24,9.24,0,0,1-1,2.3,13,13,0,0,1-1.32,1.87c-.23.29-.48.55-.72.82l-.75.76a31.44,31.44,0,0,1-3.19,2.64,56.94,56.94,0,0,1-6.86,4.19c-2.36,1.25-4.78,2.38-7.25,3.44-4.94,2.12-10.06,4-15.32,5.63S11.06,595,5.53,596.39A322.14,322.14,0,0,1-29,602.79q-9,1.17-18.3,1.83c-6.21.42-12.52.65-18.92.57-3.2,0-6.42-.16-9.65-.39s-6.49-.57-9.74-1.1a51.94,51.94,0,0,1-9.64-2.42,19.44,19.44,0,0,1-4.46-2.3,8.68,8.68,0,0,1-1.83-1.75,5.13,5.13,0,0,1-1-2.29Z"/><path class="cls-3" d="M59.87,577.51c.34,2.45.51,4.92.62,7.37s.12,4.89.06,7.32a110.76,110.76,0,0,1-1.29,14.32q-.55,3.51-1.34,7t-1.82,6.74c-.68,2.22-1.46,4.39-2.3,6.52-.22.53-.42,1.07-.65,1.59l-.69,1.57c-.23.52-.47,1-.71,1.54l-.37.77L51,633c-1,2-2.12,4-3.28,5.9-.3.47-.6.94-.89,1.41s-.63.93-.93,1.39l-.47.69c-.16.23-.33.45-.49.67l-1,1.34A71.09,71.09,0,0,1,35.18,654a71.5,71.5,0,0,1-10.09,7.63,76.56,76.56,0,0,1-10.84,5.63,89.33,89.33,0,0,1-11.12,3.84l-1.39.37c-.46.13-.92.26-1.38.36l-2.77.63c-.92.2-1.84.37-2.75.55-.46.08-.91.18-1.37.25l-1.37.22c-1.82.32-3.63.52-5.43.74l-2.69.25-.67.06-.67,0-1.33.07-1.33.08-1.32,0-1.31,0H-24l-2.6,0-2.57-.14a80.83,80.83,0,0,1-9.93-1.3,68.9,68.9,0,0,1-9.25-2.46,70.52,70.52,0,0,1-8.41-3.48,68,68,0,0,1-7.47-4.29,70.61,70.61,0,0,1-6.52-4.83c-2-1.68-3.87-3.42-5.59-5.16s-3.29-3.53-4.74-5.29c-.36-.44-.73-.87-1.07-1.31l-1-1.32c-.65-.88-1.3-1.74-1.9-2.61s-1.18-1.72-1.75-2.56-1.08-1.69-1.58-2.52c-1-1.66-1.92-3.28-2.75-4.84-1.67-3.12-3-6-4.1-8.66a95.93,95.93,0,0,1-4.2-12.21c-.38-1.4-.62-2.47-.78-3.18s-.21-1.08-.21-1.08.1.35.33,1,.58,1.72,1.08,3.08a115,115,0,0,0,5.15,11.71c1.27,2.51,2.78,5.27,4.6,8.22q1.36,2.21,3,4.55c.53.78,1.1,1.56,1.68,2.36s1.18,1.59,1.82,2.39,1.3,1.61,2,2.43l1.05,1.22c.35.41.72.81,1.09,1.22,1.48,1.63,3.05,3.27,4.77,4.87s3.56,3.18,5.53,4.71A71.76,71.76,0,0,0-62,659.68a71.17,71.17,0,0,0,7.15,3.84,69.75,69.75,0,0,0,8,3.08,69.29,69.29,0,0,0,8.71,2.17,80,80,0,0,0,9.37,1.12l2.42.11,2.46,0h.62l.62,0,1.25,0,1.26,0,1.26-.07,1.26-.07.64,0,.64-.06,2.56-.23c1.72-.22,3.45-.4,5.2-.7l1.31-.2c.44-.07.87-.16,1.31-.24.87-.17,1.76-.32,2.64-.5l2.64-.59c.45-.09.89-.22,1.33-.33l1.32-.34a87.65,87.65,0,0,0,10.6-3.51A75.14,75.14,0,0,0,22.85,658a70.33,70.33,0,0,0,9.69-7,70.11,70.11,0,0,0,8.6-8.86l1-1.24c.16-.21.33-.41.49-.63l.47-.64c.31-.43.63-.85.93-1.28l.9-1.32c1.19-1.78,2.33-3.61,3.37-5.53l.4-.71.38-.72c.25-.49.51-1,.76-1.47l.72-1.48c.24-.49.46-1,.69-1.5.91-2,1.77-4.09,2.53-6.22s1.47-4.28,2.1-6.49,1.18-4.45,1.67-6.73a114.53,114.53,0,0,0,2.08-14.05q.32-3.6.4-7.27c0-2.44,0-4.9-.13-7.37Z"/><path class="cls-3" d="M2,581a44.13,44.13,0,0,1-4.66-2.93,49.84,49.84,0,0,1-4.22-3.37,38.22,38.22,0,0,1-6.85-8,25,25,0,0,1-3.66-9.52,21.14,21.14,0,0,1-.24-2.5c0-.42,0-.84,0-1.26,0-.2,0-.41,0-.62s0-.41.05-.61a21.26,21.26,0,0,1,.95-4.76,25,25,0,0,1,1.81-4.26c.37-.7.69-1.25,1-1.85s.65-1.17,1-1.75c1.25-2.32,2.38-4.57,3.33-6.75a43.42,43.42,0,0,0,2.28-6.33,23.7,23.7,0,0,0,.84-5.81c0-.46,0-.9,0-1.35,0-.22,0-.44-.06-.65l-.08-.65c0-.21-.08-.42-.12-.63s-.07-.41-.12-.61-.11-.41-.16-.6a5.72,5.72,0,0,0-.17-.59,19.33,19.33,0,0,0-2-4.2,31.39,31.39,0,0,0-2.43-3.3c-.43-.47-.81-.94-1.22-1.35s-.77-.83-1.15-1.19c-.73-.74-1.41-1.36-2-1.91l-1.5-1.34c-.82-.7-1.23-1.07-1.23-1.07s.5.24,1.46.75c.48.25,1.06.59,1.77,1s1.49.91,2.37,1.53A29,29,0,0,1-7,510a19.82,19.82,0,0,1,2.81,4.57,7.1,7.1,0,0,1,.28.69c.09.23.17.47.26.7s.15.49.22.74.15.49.22.75.1.51.16.77.11.52.14.79c.07.53.16,1.08.18,1.63a24.63,24.63,0,0,1-.55,6.88,41.67,41.67,0,0,1-2.28,7.06A69.79,69.79,0,0,1-9,541.72c-.33.6-.66,1.21-1,1.81s-.73,1.23-1,1.77a23.2,23.2,0,0,0-1.64,3.53,19.06,19.06,0,0,0-1,3.87c0,.17-.05.34-.07.51l-.05.51c0,.34,0,.68-.06,1a18.3,18.3,0,0,0,.06,2.09,23.74,23.74,0,0,0,2.52,8.58,40.31,40.31,0,0,0,5.55,8.2q1.7,2,3.62,3.83A49.51,49.51,0,0,0,2,581Z"/></g><g class="cls-2"><path class="cls-3" d="M-61.55,254.39c-.08.14-.14.3-.21.45l-.19.46c-.06.15-.11.31-.17.47s-.11.31-.15.47l-.13.48c-.05.16-.07.33-.11.49l0,.25,0,.25a4,4,0,0,0-.05.5,6.17,6.17,0,0,0,.21,2,5.46,5.46,0,0,0,.93,1.81,4.13,4.13,0,0,0,.34.39l.17.18.19.18a3.9,3.9,0,0,0,.4.31l.2.16.11.08.11.06a7.58,7.58,0,0,0,.88.49l.46.21.48.18a15.35,15.35,0,0,0,3.89.78,28.51,28.51,0,0,0,3.92,0c1.29-.07,2.58-.19,3.85-.38A57.8,57.8,0,0,0-39,263.08a45.44,45.44,0,0,0,7.12-2.64,17.89,17.89,0,0,0,1.71-.94l.77-.48.75-.44c1-.57,2.09-1.09,3.17-1.58a65,65,0,0,1,6.57-2.55c2.21-.74,4.44-1.37,6.66-1.89s4.46-.92,6.67-1.2A46.81,46.81,0,0,1,1,251a30.55,30.55,0,0,1,6.26.7l.38.08.37.1.73.2c.5.13,1,.32,1.43.48l.35.13.34.15.68.3.34.15.35.18.71.35c1.87,1,3.68,2,5.41,3.09s3.38,2.27,5,3.5c.82.62,1.64,1.25,2.52,1.87A19.71,19.71,0,0,0,28.73,264a12,12,0,0,0,3.45,1.12,14.37,14.37,0,0,0,3.52.06l.76-.08.54-.58h0l-1.3.66a7.91,7.91,0,0,0,2.59-.74,6.36,6.36,0,0,0,1.22-.79,5.16,5.16,0,0,0,.54-.5l.26-.28.22-.29A6.42,6.42,0,0,0,41.67,260a6.51,6.51,0,0,0,.16-1.3,10.17,10.17,0,0,0,0-1.24c0-.2,0-.39-.07-.58l-.09-.58c-.09-.36-.16-.73-.26-1.09s-.21-.7-.32-1-.25-.67-.38-1a26.73,26.73,0,0,0-1.85-3.62,36.06,36.06,0,0,0-2.2-3.24c-.38-.52-.79-1-1.18-1.51l-.62-.73c-.2-.24-.41-.48-.62-.71a52.61,52.61,0,0,0-5.31-5.16c-.92-.78-1.87-1.53-2.84-2.24s-1.95-1.37-2.94-2A45,45,0,0,0,17,230.73c-1.06-.45-2.12-.86-3.19-1.22s-2.12-.64-3.17-.95L9,228.16,8.25,228c-.26-.07-.52-.12-.78-.17l-1.55-.34-1.54-.28c-16.41-2.84-30.9-.62-41.31,4-.34.13-.65.29-1,.44l-.94.45-.93.45c-.3.14-.59.32-.89.48l-1.73.95c-.56.33-1.09.67-1.62,1l-.79.49c-.26.17-.51.36-.76.53L-47,237c-.24.16-.46.35-.69.52l-.66.53-.65.52a6.45,6.45,0,0,0-.63.52A48.23,48.23,0,0,0-57,247a49.64,49.64,0,0,0-3.52,5.49l-1,1.94,1.21-1.83a58.26,58.26,0,0,1,3.94-5.12,50.42,50.42,0,0,1,7.72-7.15c.21-.17.43-.31.65-.47l.66-.46.67-.47c.23-.15.45-.32.69-.46l1.46-.9c.25-.16.5-.32.76-.46l.78-.43,1.62-.88,1.71-.82.88-.41.91-.37.92-.39c.31-.12.62-.26.95-.37l2-.7c.33-.12.67-.22,1-.32l1-.31,1-.32,1.07-.26,1.09-.27c.37-.09.73-.2,1.1-.26a67,67,0,0,1,9.5-1.36,82,82,0,0,1,10.54-.06c1.83.1,3.7.29,5.59.51l1.43.2c.47.08,1,.13,1.43.22,1,.17,1.93.32,2.89.53.49.1,1,.19,1.46.3l1.47.35.73.17.74.2,1.47.4c1,.31,2,.59,2.92.94s1.91.72,2.86,1.14a42.74,42.74,0,0,1,5.57,3c.9.58,1.8,1.2,2.68,1.86s1.75,1.35,2.6,2.08A49.66,49.66,0,0,1,31,246.25c.2.21.38.43.57.65l.56.66c.35.45.73.9,1.07,1.37a32.9,32.9,0,0,1,1.95,2.87,20.79,20.79,0,0,1,1.56,3c.11.26.2.51.3.77s.16.52.25.78.12.5.19.76l0,.37a2.39,2.39,0,0,1,.05.36,5.25,5.25,0,0,1,0,.68,3,3,0,0,1-.06.61,2.24,2.24,0,0,1-.39.94,1.91,1.91,0,0,1-.73.6,3.61,3.61,0,0,1-1.16.34l-.79.09-.51.56h0l1.3-.65a9.86,9.86,0,0,1-2.43,0,7.81,7.81,0,0,1-2.28-.71,33.42,33.42,0,0,1-4.81-3.16c-1.69-1.24-3.48-2.46-5.34-3.6s-3.81-2.17-5.8-3.13l-.75-.36-.37-.18-.41-.17-.82-.34-.42-.17-.42-.14c-.56-.18-1.12-.39-1.69-.52l-.86-.22-.43-.1L8,248.16a33.62,33.62,0,0,0-7-.6A56.37,56.37,0,0,0-13,249.67c-2.3.62-4.59,1.36-6.85,2.21a70.64,70.64,0,0,0-6.71,2.93c-1.1.56-2.2,1.16-3.27,1.82-.27.17-.54.34-.8.52l-.77.53c-.45.32-1,.61-1.47.9a44.21,44.21,0,0,1-6.68,2.83,55.58,55.58,0,0,1-7.19,1.95c-1.22.25-2.46.44-3.71.58a29.8,29.8,0,0,1-3.78.17,15,15,0,0,1-3.72-.53,6.52,6.52,0,0,1-3.18-1.87,5.17,5.17,0,0,1-1.27-3.5,8.57,8.57,0,0,1,.23-1.94c0-.16.08-.31.12-.47s.09-.32.14-.48l.16-.47a4.37,4.37,0,0,1,.18-.46Z"/><path class="cls-3" d="M40.39,273.75a4.49,4.49,0,0,1-.41,1.76,12.14,12.14,0,0,1-.85,1.59A23.55,23.55,0,0,1,37,280a47.09,47.09,0,0,1-5.08,5,65.48,65.48,0,0,1-11.5,7.87A62.4,62.4,0,0,1,8,298a51.77,51.77,0,0,1-12.81,2,47,47,0,0,1-6.3-.27c-.52-.07-1-.12-1.55-.2l-.77-.12-.38-.07-.38-.07c-1-.18-2-.42-3.07-.64q-6.14-1.35-11.92-3.24l-1.44-.47-1.42-.5-.7-.25-.7-.27-1.4-.52c-1.84-.73-3.66-1.48-5.42-2.31-.88-.4-1.75-.83-2.61-1.26-.43-.21-.85-.44-1.27-.66s-.85-.44-1.26-.68l-1.24-.69-1.22-.73c-.4-.23-.79-.49-1.19-.74s-.79-.49-1.17-.76l-1.14-.78-1.12-.81c-.37-.26-.72-.55-1.08-.83l-.54-.42-.52-.43c-.34-.29-.7-.57-1-.87l-1-.9-1-.92c-.31-.31-.6-.64-.91-1a28.16,28.16,0,0,1-3.13-4,19,19,0,0,1-2.08-4.35c-.07-.18-.1-.37-.16-.56l-.15-.55c-.08-.39-.17-.77-.22-1.14a10.61,10.61,0,0,1-.11-1.06,4.57,4.57,0,0,1,0-.87,1.1,1.1,0,0,1,.14-.42s0,0,0,0a1.41,1.41,0,0,1,.43-.07,3.81,3.81,0,0,1,.84.08,11.6,11.6,0,0,1,2.06.62c.71.27,1.42.59,2.13.93,1.43.7,2.82,1.48,4.2,2.3s2.72,1.66,4.05,2.51l2,1.29.57.35.62.35.63.3c.22.09.43.2.64.28a16.63,16.63,0,0,0,5.16,1,26.79,26.79,0,0,0,4.86-.21,46,46,0,0,0,4.53-.8c1.46-.34,2.88-.71,4.26-1.12,2.77-.81,5.4-1.72,7.93-2.64,5.07-1.84,9.74-3.71,14.15-5.35l3.25-1.19c.55-.19,1-.36,1.56-.52s1-.31,1.53-.44a37,37,0,0,1,6.07-1.05,51.48,51.48,0,0,1,11,.22,54,54,0,0,1,9,1.91c5.26,1.61,9,3.73,11,5.7a9.39,9.39,0,0,1,1.19,1.41,6.33,6.33,0,0,1,.61,1.17,4.63,4.63,0,0,1,.15.44l.08.33c0,.18,0,.27,0,.27s0-.09,0-.27a2.75,2.75,0,0,0,0-.34,3.85,3.85,0,0,0-.11-.47,6.33,6.33,0,0,0-.51-1.25,9.84,9.84,0,0,0-1.1-1.56c-1.89-2.21-5.54-4.7-10.83-6.71a52.36,52.36,0,0,0-9.15-2.55c-.86-.16-1.75-.3-2.66-.42s-1.86-.23-2.82-.3a48,48,0,0,0-6-.12,39.4,39.4,0,0,0-6.55.83c-.56.12-1.13.25-1.69.4s-1.15.33-1.69.5c-1.1.34-2.21.7-3.34,1.07-4.52,1.49-9.27,3.2-14.3,4.87-2.52.83-5.11,1.66-7.78,2.37-1.34.36-2.69.68-4.06,1s-2.76.51-4.16.67a24.16,24.16,0,0,1-4.16.11,13.2,13.2,0,0,1-3.87-.82l-.43-.2-.43-.2-.4-.25a4,4,0,0,1-.43-.27l-2-1.32q-2-1.33-4.17-2.63c-1.43-.87-2.91-1.71-4.49-2.49-.79-.39-1.61-.76-2.47-1.1a15.82,15.82,0,0,0-2.82-.83,7.61,7.61,0,0,0-1.71-.15,5.27,5.27,0,0,0-2.08.43,4.66,4.66,0,0,0-1.07.67,4.2,4.2,0,0,0-.83,1,5.09,5.09,0,0,0-.75,2,8.13,8.13,0,0,0-.1,1.74,12.46,12.46,0,0,0,.16,1.56c.07.5.17,1,.28,1.46l.2.72c.07.24.12.49.21.72a23.28,23.28,0,0,0,2.57,5.34,33.09,33.09,0,0,0,3.64,4.61c.34.35.67.71,1,1.05l1.06,1,1.1,1c.37.33.76.62,1.13.94l.58.46.58.45c.4.29.78.6,1.19.88l1.21.85,1.24.82c.41.28.84.53,1.26.8s.84.52,1.28.76l1.29.75,1.32.71c.44.24.89.47,1.34.69s.9.46,1.36.67c.91.43,1.82.87,2.76,1.27,1.85.82,3.76,1.56,5.69,2.27l1.46.51.73.26.74.24,1.48.48,1.5.45a122.47,122.47,0,0,0,12.33,3c1.06.2,2.1.4,3.21.57l.41.06.41.05.83.1c.55.07,1.1.11,1.65.16a48.45,48.45,0,0,0,6.71,0,52.78,52.78,0,0,0,13.35-2.65,62.78,62.78,0,0,0,12.58-5.88,65.17,65.17,0,0,0,11.29-8.62,47.5,47.5,0,0,0,4.84-5.36,25.4,25.4,0,0,0,2-3,12.63,12.63,0,0,0,.77-1.67,4.46,4.46,0,0,0,.3-1.8Z"/><path class="cls-3" d="M88.77,389.89a9.84,9.84,0,0,1-2.33,2.64,14.18,14.18,0,0,1-3,1.82,21.12,21.12,0,0,1-3.26,1.17,30.13,30.13,0,0,1-3.37.71,50.52,50.52,0,0,1-13.51,0,60.88,60.88,0,0,1-6.52-1.18c-.53-.12-1.05-.27-1.58-.4s-1-.29-1.56-.46l-.78-.24-.76-.26c-.51-.16-1-.37-1.5-.56a47.2,47.2,0,0,1-5.73-2.76A62.32,62.32,0,0,1,39.57,387a85,85,0,0,1-9.58-7.8c-1.47-1.39-2.9-2.81-4.26-4.27-.68-.73-1.33-1.48-2-2.21l-1-1.13-.47-.57-.46-.57A65.26,65.26,0,0,1,15.43,361c-.21-.42-.43-.83-.65-1.23l-.59-1.25c-.21-.41-.38-.83-.56-1.25l-.26-.62c-.09-.21-.16-.42-.24-.63l-.24-.63c-.08-.21-.16-.42-.22-.63-.13-.42-.27-.84-.4-1.27s-.22-.84-.32-1.26l-.08-.32-.06-.32-.12-.63c0-.21-.08-.41-.11-.64l-.1-.67-.09-.67-.09-.67q-.17-1.33-.27-2.67c-.15-1.76-.22-3.52-.2-5.24a34.77,34.77,0,0,1,1.35-9.84c.06-.19.13-.37.19-.56s.12-.37.19-.55c.15-.35.28-.72.45-1.05a12.63,12.63,0,0,1,1.06-1.92l.31-.43.32-.4c.11-.14.23-.26.34-.38s.23-.25.35-.35a6.28,6.28,0,0,1,1.54-1.07,5.84,5.84,0,0,1,1.72-.54c.15,0,.31,0,.46-.05h.35a1.4,1.4,0,0,1,.45.1,2.89,2.89,0,0,1,1,.89A11.07,11.07,0,0,1,22,325.92c.67,1.27,1.26,2.69,1.85,4.1s1.15,2.87,1.75,4.29a69.7,69.7,0,0,0,4,8.24,41.34,41.34,0,0,0,5.2,7.17,34.67,34.67,0,0,0,6.41,5.53,36.2,36.2,0,0,0,7.07,3.64l.9.33.44.16.43.14,1.69.59,3.29,1.17c4.3,1.55,8.28,3.11,11.91,4.69a105.18,105.18,0,0,1,9.78,4.81,47.68,47.68,0,0,1,7.39,5,22.74,22.74,0,0,1,2.65,2.63,14.51,14.51,0,0,1,1.83,2.65,9.22,9.22,0,0,1,1.18,4.81,9.11,9.11,0,0,1-.08.95c-.06.29-.09.57-.16.82l-.09.36c0,.11-.07.22-.1.33a1.9,1.9,0,0,0-.09.29c0,.09-.07.18-.1.26a6.89,6.89,0,0,1-.31.73l-.1.24.13-.23a7.7,7.7,0,0,0,.37-.7l.13-.25.12-.29c0-.1.09-.21.13-.32l.13-.36c.09-.24.16-.52.24-.82a8.58,8.58,0,0,0,.18-1,9.14,9.14,0,0,0,0-2.39,10.48,10.48,0,0,0-.81-2.81,15.16,15.16,0,0,0-1.73-3,23.85,23.85,0,0,0-2.59-3,46.21,46.21,0,0,0-7.3-5.7A96.42,96.42,0,0,0,68,363.66q-5.41-2.69-11.86-5.29c-1.08-.44-2.17-.88-3.28-1.31l-1.69-.65-.42-.17-.41-.16-.81-.33a33.21,33.21,0,0,1-6.28-3.48,31.89,31.89,0,0,1-5.6-5.09,38.43,38.43,0,0,1-4.58-6.62,67.35,67.35,0,0,1-3.65-7.83c-.56-1.39-1.11-2.81-1.69-4.28a49.28,49.28,0,0,0-2-4.51,14.47,14.47,0,0,0-1.5-2.36,7.64,7.64,0,0,0-1.12-1.17,6.31,6.31,0,0,0-1.55-1,5.55,5.55,0,0,0-1.92-.45h-.49l-.39,0a6.94,6.94,0,0,0-.77.08,10.15,10.15,0,0,0-5.55,2.7,7,7,0,0,0-.55.54,6.66,6.66,0,0,0-.5.56l-.48.59-.43.6a17.68,17.68,0,0,0-1.41,2.55c-.21.44-.37.88-.55,1.32-.08.22-.16.45-.23.67s-.16.45-.23.68A33.49,33.49,0,0,0,7,334.78a45.33,45.33,0,0,0-.33,5.59c0,1.88.1,3.76.28,5.64.09.94.19,1.89.33,2.83l.09.71.12.7.11.71c0,.24.09.49.14.74l.15.74.08.37.09.37c.13.48.26,1,.4,1.46l.48,1.43c.07.24.17.47.26.7l.27.7c.1.23.18.47.28.7l.31.68c.21.46.41.93.64,1.37l.68,1.34c.24.44.48.88.73,1.32a65.29,65.29,0,0,0,7,9.88l.5.59.51.57,1,1.15c.71.75,1.41,1.51,2.14,2.24,1.45,1.48,3,2.9,4.56,4.29A85.6,85.6,0,0,0,38,389.33c1.82,1.17,3.72,2.28,5.68,3.28a49.54,49.54,0,0,0,6.15,2.65c.54.17,1.07.36,1.61.51.27.08.54.17.82.24l.81.21c.55.15,1.1.27,1.65.4s1.11.24,1.66.34a61,61,0,0,0,6.76.88A50.76,50.76,0,0,0,77,397.07a31.72,31.72,0,0,0,3.4-.93,22.93,22.93,0,0,0,3.27-1.39,14.77,14.77,0,0,0,2.92-2.05,9.93,9.93,0,0,0,2.18-2.81Z"/><path class="cls-3" d="M25.67,312.17A7.5,7.5,0,0,1,28.14,310a12.86,12.86,0,0,1,3.07-1.22,18.77,18.77,0,0,1,3.24-.56,27.25,27.25,0,0,1,3.26-.11,47.64,47.64,0,0,1,12.63,2.19A71.19,71.19,0,0,1,61.89,315a83.87,83.87,0,0,1,10.35,6.29,92.17,92.17,0,0,1,9.11,7.41A71.76,71.76,0,0,1,89,337,63.27,63.27,0,0,1,95,346a53,53,0,0,1,4,9.6,41,41,0,0,1,1.78,9.75,30.93,30.93,0,0,1-.11,4.73,20.39,20.39,0,0,1-.94,4.38A10.47,10.47,0,0,1,97.82,378a5.79,5.79,0,0,1-.62.6,3.59,3.59,0,0,1-.33.25l-.35.21a2.31,2.31,0,0,1-.61.26,1,1,0,0,1-.39.05,1,1,0,0,1-.38-.12,2.31,2.31,0,0,1-.52-.37,5,5,0,0,1-.6-.61c-.2-.24-.41-.5-.6-.77-.8-1.11-1.54-2.41-2.29-3.7a76.26,76.26,0,0,0-4.8-7.72A29.36,29.36,0,0,0,80,359.61c-.6-.44-1.23-.85-1.86-1.23s-1.29-.73-2-1l-.5-.23-.25-.11L75.3,357s0,0,0,0h0l-.84-.43-1.73-.89c-2.3-1.2-4.52-2.41-6.66-3.6-4.29-2.38-8.29-4.73-12-7s-7-4.55-10.12-6.71l-2.22-1.63-1.07-.8-1-.81-2-1.57-1.83-1.58-.88-.76c-.29-.25-.56-.51-.84-.77s-.55-.51-.81-.76l-.78-.75c-1-1-1.94-2-2.77-2.94a26.72,26.72,0,0,1-3.8-5.45,12.92,12.92,0,0,1-.94-2.44,9.08,9.08,0,0,1-.3-2.13,7,7,0,0,1,.53-2.85c.07-.16.12-.29.18-.4l.14-.28.12-.22-.14.21a1.68,1.68,0,0,0-.17.26c-.07.11-.14.23-.22.38a7.41,7.41,0,0,0-.5,1.16,7.56,7.56,0,0,0-.34,1.73,9.42,9.42,0,0,0,.12,2.26,13.17,13.17,0,0,0,.77,2.65,26.7,26.7,0,0,0,3.49,6c.79,1,1.67,2.13,2.64,3.22.24.28.49.55.74.82s.51.56.78.84l.8.84.86.83,1.78,1.74,1.93,1.72,1,.89,1,.87,2.17,1.78c3,2.36,6.31,4.81,10,7.29s7.59,5,11.86,7.54c2.14,1.27,4.35,2.56,6.65,3.83l1.74,1c.31.16.62.32.92.49l.52.24.41.19c.55.27,1.08.58,1.6.89s1,.68,1.53,1.06A25.73,25.73,0,0,1,83,368.5c.8,1.11,1.55,2.29,2.29,3.52s1.44,2.52,2.18,3.85A46.33,46.33,0,0,0,90,380c.25.35.52.7.82,1.06a10.13,10.13,0,0,0,1,1.05,6.78,6.78,0,0,0,1.4,1,5.22,5.22,0,0,0,3.82.39,6.77,6.77,0,0,0,1.59-.65l.34-.2.33-.22c.21-.15.43-.3.63-.47a10.18,10.18,0,0,0,1.11-1.06,14.41,14.41,0,0,0,2.77-5,28.22,28.22,0,0,0,1.2-10.74,43.74,43.74,0,0,0-2.08-10.72,54.48,54.48,0,0,0-4.52-10.26,63.8,63.8,0,0,0-6.58-9.45,73.43,73.43,0,0,0-8.32-8.42,91,91,0,0,0-9.7-7.29,81.82,81.82,0,0,0-10.94-6,70.05,70.05,0,0,0-12.09-4.25,47.42,47.42,0,0,0-13.06-1.51,27,27,0,0,0-3.34.32,19.79,19.79,0,0,0-3.28.78,12.74,12.74,0,0,0-3,1.45,7.54,7.54,0,0,0-2.36,2.41Z"/></g><g class="cls-2"><path class="cls-3" d="M344.34,69a9.72,9.72,0,0,0,3.27-1.74,13.57,13.57,0,0,0,2.5-2.69,20.66,20.66,0,0,0,1.83-3.15A30.44,30.44,0,0,0,353.28,58a44.91,44.91,0,0,0,1.62-7,58.3,58.3,0,0,0,.6-7.07,57.56,57.56,0,0,0-.24-7c-.11-1.15-.26-2.28-.45-3.41-.05-.28-.09-.56-.15-.84l-.17-.82c-.07-.28-.11-.56-.18-.83l-.21-.82a65.63,65.63,0,0,0-4.82-12.49c-.49-1-1-2-1.52-2.93S346.7,12.9,346.14,12,345,10.1,344.45,9.18l-.88-1.35-.44-.68-.45-.67c-1.19-1.78-2.46-3.49-3.74-5.16S336.32-2,335-3.51l-1-1.15-.52-.56-.53-.56c-.35-.37-.7-.74-1.06-1.1l-1.08-1.07c-.36-.36-.74-.69-1.1-1s-.73-.68-1.11-1l-1.13-1-1.15-.93c-.38-.32-.77-.61-1.16-.91s-.77-.59-1.18-.86l-1.19-.83-1.21-.76a32.9,32.9,0,0,0-5-2.52,72,72,0,0,0-10.76-3.3,45.9,45.9,0,0,0-5.32-.85,29.69,29.69,0,0,0-5.15-.09c-.41,0-.83.08-1.23.14-.19,0-.4.05-.59.09l-.59.12c-.2,0-.38.09-.58.14a4.94,4.94,0,0,0-.55.15l-.55.18-.52.2a8.46,8.46,0,0,0-1.82,1,5.59,5.59,0,0,0-1.27,1.4,5.34,5.34,0,0,0-.71,1.72.51.51,0,0,0,0,.09v.06a.49.49,0,0,0,0,.12.48.48,0,0,0,0,.12s0,.08,0,.13a1.8,1.8,0,0,0,.19.57c.05.11.13.22.2.34s.16.24.26.37.44.5.68.75a19.87,19.87,0,0,0,1.73,1.47c1.24,1,2.6,1.87,4,2.78s2.72,1.81,4.06,2.73a79.8,79.8,0,0,1,7.62,5.88,47.67,47.67,0,0,1,6.35,6.79A38.69,38.69,0,0,1,316.43,13a39.38,39.38,0,0,1,2.56,8c.26,1.35.46,2.57.68,3.8s.43,2.44.66,3.62q1.34,7.13,2.88,13.19a111.29,111.29,0,0,0,3.38,11,51.94,51.94,0,0,0,4,8.56,21.46,21.46,0,0,0,4.69,5.64A10.69,10.69,0,0,0,340,69a8.86,8.86,0,0,0,1.88.19h.39l.36,0,.32,0,.29,0c.37,0,.64-.09.83-.12l.27-.05-.27.08c-.18,0-.44.13-.81.2l-.29.06-.32,0-.37.06-.39,0a9.94,9.94,0,0,1-1.95,0,10.62,10.62,0,0,1-2.45-.6,12.56,12.56,0,0,1-2.71-1.44,21.9,21.9,0,0,1-5.32-5.56,49.87,49.87,0,0,1-4.67-8.57,104.55,104.55,0,0,1-4-11Q318.9,36.13,317.28,29c-.27-1.19-.54-2.4-.8-3.63s-.52-2.52-.79-3.7a36.14,36.14,0,0,0-2.54-7.17,36.7,36.7,0,0,0-4.29-6.78,44,44,0,0,0-6-6.12,77.18,77.18,0,0,0-7.33-5.47c-1.31-.88-2.66-1.76-4-2.66s-2.79-1.83-4.21-2.91a21.78,21.78,0,0,1-2.13-1.81,13,13,0,0,1-1-1.14c-.17-.2-.33-.44-.49-.66a8.13,8.13,0,0,1-.44-.77,6,6,0,0,1-.61-1.87c0-.17,0-.35-.05-.52a3.13,3.13,0,0,1,0-.53,4.38,4.38,0,0,1,0-.52l0-.26a1.5,1.5,0,0,1,0-.24A9.8,9.8,0,0,1,284-20.86a9.6,9.6,0,0,1,2.26-2.49A12.3,12.3,0,0,1,289-25l.73-.29.74-.24c.24-.08.49-.14.74-.2s.49-.14.74-.18l.75-.14.74-.12c.5-.07,1-.11,1.49-.16a34.15,34.15,0,0,1,5.9.12,49.77,49.77,0,0,1,5.8,1A72.76,72.76,0,0,1,318-21.57a36.2,36.2,0,0,1,5.59,2.92l1.32.87,1.28.92c.44.3.84.64,1.26,1s.83.65,1.23,1a73.15,73.15,0,0,1,9,9.05c1.38,1.65,2.72,3.36,4,5.12s2.53,3.58,3.7,5.45l.45.7.43.71c.28.48.58,1,.86,1.43.55,1,1.12,1.94,1.65,2.93s1,2,1.56,3,1,2,1.46,3.08c.94,2.09,1.82,4.21,2.57,6.41a56.33,56.33,0,0,1,1.92,6.76l.18.88c.06.29.1.58.15.88l.15.88.12.89c.14,1.18.24,2.37.3,3.56a59.53,59.53,0,0,1-.08,7.19,57.1,57.1,0,0,1-1,7.2,43.53,43.53,0,0,1-2,7.08,33.26,33.26,0,0,1-1.56,3.38,21.39,21.39,0,0,1-2.06,3.13,13.63,13.63,0,0,1-2.71,2.6A9.87,9.87,0,0,1,344.34,69Z"/><path class="cls-3" d="M274.34-13a7.38,7.38,0,0,0-2.86,2,12.64,12.64,0,0,0-1.86,3,23.7,23.7,0,0,0-1.79,6.68,48.79,48.79,0,0,0,.32,13.56A75.64,75.64,0,0,0,271.31,25a93.61,93.61,0,0,0,4.95,11.84,101.13,101.13,0,0,0,6.25,10.76,80.61,80.61,0,0,0,7.34,9.47,66.32,66.32,0,0,0,17.6,14.05,47.15,47.15,0,0,0,9.77,4,32.21,32.21,0,0,0,4.94,1,21.13,21.13,0,0,0,4.76.06,9.38,9.38,0,0,0,4-1.23,4.61,4.61,0,0,0,.69-.52,4.26,4.26,0,0,0,.51-.59,1.71,1.71,0,0,0,.2-.43.92.92,0,0,0,0-.37,3.72,3.72,0,0,0-.7-1.33,14.71,14.71,0,0,0-1.43-1.6c-1.07-1.06-2.29-2.09-3.49-3.14a79.2,79.2,0,0,1-7-6.58,33,33,0,0,1-5.41-7.8c-.17-.36-.32-.72-.48-1.08s-.3-.72-.43-1.09a22,22,0,0,1-.71-2.22l-.14-.55,0-.08v0h0l0-.06-.07-.25c-.11-.33-.21-.66-.32-1-.22-.66-.42-1.31-.64-2-.43-1.31-.87-2.58-1.3-3.85s-.88-2.5-1.32-3.72q-2.64-7.34-5.28-13.71c-1.76-4.24-3.54-8.14-5.26-11.72-.91-1.76-1.73-3.49-2.63-5.07L295,5.06c-.22-.4-.42-.79-.65-1.16L293,1.7c-.84-1.44-1.73-2.76-2.59-4s-1.71-2.38-2.55-3.43a31.07,31.07,0,0,0-5-5,15.07,15.07,0,0,0-2.34-1.51,10.61,10.61,0,0,0-2.13-.82,7.63,7.63,0,0,0-3.07-.16,4.12,4.12,0,0,0-.45.08l-.32.07-.26.07.25-.1.31-.1.45-.13a7.75,7.75,0,0,1,3.17-.11,10.54,10.54,0,0,1,2.3.66,15.5,15.5,0,0,1,2.57,1.38,30,30,0,0,1,5.5,4.8q1.41,1.53,2.85,3.34c1,1.21,1.95,2.5,2.9,3.92l1.47,2.16c.26.37.48.76.73,1.14l.73,1.18c1,1.57,1.93,3.27,2.94,5,1.94,3.54,3.91,7.42,5.86,11.64s3.89,8.79,5.82,13.68c.48,1.23.95,2.47,1.43,3.74s.95,2.55,1.42,3.86c.24.65.46,1.32.7,2,.11.34.23.67.35,1l.08.26.06.18,0,.2.13.46c.19.62.39,1.24.63,1.85.12.31.25.61.38.91s.28.61.43.9a29.35,29.35,0,0,0,4.86,6.76,78,78,0,0,0,6.72,6.17c1.21,1,2.47,2.1,3.73,3.32.31.31.62.62.94,1a12.67,12.67,0,0,1,.91,1.1,9.65,9.65,0,0,1,.86,1.34,6.55,6.55,0,0,1,.63,1.75,5.28,5.28,0,0,1,0,2.13,5.71,5.71,0,0,1-.81,1.86,8.36,8.36,0,0,1-1.14,1.33,9.88,9.88,0,0,1-1.33,1,11.62,11.62,0,0,1-2.88,1.27,16,16,0,0,1-2.91.58,25.09,25.09,0,0,1-5.75-.09,36.47,36.47,0,0,1-5.57-1.15,50.28,50.28,0,0,1-10.59-4.47,67.94,67.94,0,0,1-18.33-15.25,81.12,81.12,0,0,1-7.36-10.1,101.56,101.56,0,0,1-6-11.31,90.28,90.28,0,0,1-4.58-12.37,74.7,74.7,0,0,1-2.6-13.3A48.76,48.76,0,0,1,267-1.5a23.91,23.91,0,0,1,2.24-6.73,12.71,12.71,0,0,1,2.09-2.91,7.34,7.34,0,0,1,3-1.88Z"/><path class="cls-3" d="M168.73,27.09a9.75,9.75,0,0,0,1.79,3,14.74,14.74,0,0,0,2.58,2.35,21.72,21.72,0,0,0,3,1.75,31.42,31.42,0,0,0,3.18,1.33,50.55,50.55,0,0,0,13.27,2.54,61,61,0,0,0,6.62.06c.55,0,1.09-.06,1.63-.1s1.09-.08,1.62-.15l.81-.09.8-.12c.53-.06,1.05-.17,1.57-.27a44.6,44.6,0,0,0,6.15-1.65c2-.67,4-1.45,5.87-2.31a86.24,86.24,0,0,0,10.86-5.88c1.71-1.09,3.38-2.22,5-3.41.81-.58,1.59-1.2,2.38-1.8l1.14-.93.57-.46.56-.48a63.69,63.69,0,0,0,8.07-8.11L247,11.3l.82-1.11c.28-.36.52-.74.78-1.12l.38-.56.35-.58.35-.57c.11-.2.23-.38.33-.58l.63-1.17.56-1.19.13-.29.12-.3.23-.6c.08-.21.16-.39.24-.61l.21-.64.22-.64.21-.64c.28-.86.53-1.72.77-2.57.47-1.71.87-3.42,1.18-5.12a35.27,35.27,0,0,0,.5-9.92c0-.19-.06-.38-.08-.58l-.09-.57c-.08-.38-.14-.76-.24-1.12a13.47,13.47,0,0,0-.69-2.09l-.22-.48-.24-.45c-.08-.16-.18-.29-.26-.43a3.27,3.27,0,0,0-.28-.41,6,6,0,0,0-1.31-1.34,5.81,5.81,0,0,0-1.59-.85,3.66,3.66,0,0,0-.44-.13l-.22-.07-.13,0a1.42,1.42,0,0,0-.46,0,3,3,0,0,0-1.19.68,12.07,12.07,0,0,0-1.37,1.45,43.68,43.68,0,0,0-2.58,3.69c-.84,1.29-1.67,2.59-2.52,3.88a69.38,69.38,0,0,1-5.47,7.35,42,42,0,0,1-6.45,6.08,34.89,34.89,0,0,1-7.32,4.23,35.74,35.74,0,0,1-7.63,2.25l-.94.16-.47.07-.45.07-1.77.26-3.45.53c-4.52.73-8.71,1.51-12.57,2.39a103.7,103.7,0,0,0-10.51,2.9,47.87,47.87,0,0,0-8.2,3.57,24.45,24.45,0,0,0-3.09,2.09,14.11,14.11,0,0,0-2.3,2.26A9.43,9.43,0,0,0,168.45,23c0,.33-.07.65-.09,1s0,.58,0,.83,0,.26,0,.38,0,.23,0,.33,0,.21,0,.31,0,.19,0,.27a7.47,7.47,0,0,0,.16.77l.06.26-.09-.25a7.64,7.64,0,0,1-.24-.75,2.68,2.68,0,0,0-.07-.27c0-.1,0-.2-.07-.31s0-.22-.07-.34l-.06-.37c0-.27,0-.55-.08-.86a8.25,8.25,0,0,1,0-1,9.09,9.09,0,0,1,.46-2.35A10.87,10.87,0,0,1,169.84,18a15.63,15.63,0,0,1,2.26-2.59A23.85,23.85,0,0,1,175.19,13a46,46,0,0,1,8.23-4.24A98.11,98.11,0,0,1,194,5.19q5.81-1.62,12.64-3l3.46-.67,1.78-.33.45-.08.43-.08.86-.17a33.22,33.22,0,0,0,6.82-2.25,32,32,0,0,0,6.45-4A38.56,38.56,0,0,0,232.61-11a69.15,69.15,0,0,0,5-7c.81-1.26,1.61-2.56,2.46-3.9s1.72-2.69,2.8-4.06a16.38,16.38,0,0,1,1.92-2,8.44,8.44,0,0,1,1.31-.93,5.89,5.89,0,0,1,1.72-.68,5.66,5.66,0,0,1,2-.08l.47.08.38.1c.25.07.5.13.74.22a10,10,0,0,1,2.77,1.47,10.47,10.47,0,0,1,2.19,2.22c.16.2.29.42.43.63a7.45,7.45,0,0,1,.39.65c.12.22.25.44.36.66l.31.68a17.93,17.93,0,0,1,.91,2.77c.12.46.2.93.29,1.4.05.23.07.47.11.7s.07.47.09.7a33,33,0,0,1,.11,5.62,45.31,45.31,0,0,1-.72,5.55q-.53,2.76-1.32,5.49c-.27.91-.55,1.82-.85,2.72l-.23.68-.24.67-.24.67c-.08.23-.19.47-.28.7l-.29.7-.14.35-.17.34c-.22.46-.43.91-.66,1.36l-.73,1.32c-.12.22-.26.43-.39.64l-.4.64c-.14.21-.27.43-.41.63l-.43.62c-.29.41-.57.83-.88,1.22l-.92,1.19-1,1.16a65.09,65.09,0,0,1-8.76,8.39l-.59.49-.61.47-1.23.93c-.83.6-1.66,1.22-2.52,1.8-1.7,1.19-3.47,2.3-5.28,3.37A84.9,84.9,0,0,1,218.68,36c-2,.81-4.08,1.54-6.2,2.16A47.15,47.15,0,0,1,206,39.62c-.56.08-1.12.17-1.68.21l-.84.08-.85.06c-.56,0-1.12.05-1.69.08s-1.13,0-1.7,0a59.75,59.75,0,0,1-6.8-.39A50.53,50.53,0,0,1,179,36.34a31.92,31.92,0,0,1-3.17-1.54,22.42,22.42,0,0,1-2.95-2,14.66,14.66,0,0,1-2.49-2.55,9.89,9.89,0,0,1-1.61-3.17Z"/><path class="cls-3" d="M245.22-37.49a7.52,7.52,0,0,0-2-2.64,12.48,12.48,0,0,0-2.78-1.77,19.08,19.08,0,0,0-3.08-1.16,28.68,28.68,0,0,0-3.18-.72A47.51,47.51,0,0,0,221.34-44a69.58,69.58,0,0,0-12.23,2.48,84.83,84.83,0,0,0-11.34,4.25,92.74,92.74,0,0,0-10.33,5.58,72.58,72.58,0,0,0-9.1,6.69,62.31,62.31,0,0,0-7.56,7.79,53.13,53.13,0,0,0-5.73,8.68A40.65,40.65,0,0,0,161.49.75a29.63,29.63,0,0,0-.78,4.66,20.27,20.27,0,0,0,.11,4.49,10.37,10.37,0,0,0,1.23,3.8,5.35,5.35,0,0,0,.51.71,3.85,3.85,0,0,0,.27.3,3.92,3.92,0,0,0,.31.28,2.37,2.37,0,0,0,.54.37,1.33,1.33,0,0,0,.38.12,1,1,0,0,0,.39-.05,2.45,2.45,0,0,0,.59-.27,4.5,4.5,0,0,0,.7-.49c.24-.19.49-.41.74-.64,1-.94,2-2.08,2.93-3.21a74.63,74.63,0,0,1,6.16-6.68A29.5,29.5,0,0,1,183-1c.68-.32,1.37-.6,2.06-.86s1.4-.47,2.12-.65l.53-.13.27-.06.13,0h0L189-3l1.87-.56c2.48-.75,4.88-1.52,7.21-2.29q7-2.33,13.07-4.66c4-1.57,7.77-3.15,11.19-4.7l2.48-1.19,1.21-.58,1.16-.61,2.24-1.17,2.1-1.21,1-.58c.33-.19.65-.4,1-.6s.63-.4.93-.59l.91-.6q1.77-1.18,3.27-2.37a27,27,0,0,0,4.75-4.65,13.08,13.08,0,0,0,1.38-2.22,8.55,8.55,0,0,0,.69-2,7.16,7.16,0,0,0,0-2.91c0-.16-.07-.3-.1-.42l-.08-.3-.08-.24s0,.08.1.23.07.17.12.29l.14.42a6.62,6.62,0,0,1,.27,1.22,7.35,7.35,0,0,1,0,1.77,9.76,9.76,0,0,1-.54,2.2,13.93,13.93,0,0,1-1.25,2.46,27.16,27.16,0,0,1-4.55,5.22c-1,.88-2,1.77-3.19,2.66l-.88.68c-.3.22-.6.45-.92.67l-.95.67-1,.67L230.53-17l-2.23,1.33-1.14.68-1.2.66-2.46,1.35c-3.39,1.76-7.1,3.54-11.14,5.3S204-4.15,199.3-2.44c-2.34.84-4.74,1.7-7.25,2.52L190.16.7l-1,.31-.56.13-.43.12a17.74,17.74,0,0,0-1.74.58,18.47,18.47,0,0,0-1.71.75,25.79,25.79,0,0,0-6.32,4.57c-1,.94-1.95,2-2.9,3s-1.89,2.21-2.87,3.37a42.81,42.81,0,0,1-3.22,3.56c-.32.3-.65.6-1,.89a9.56,9.56,0,0,1-1.21.85,6.9,6.9,0,0,1-1.55.68,5.15,5.15,0,0,1-3.83-.32,7,7,0,0,1-1.44-.94l-.29-.26-.29-.27a7.43,7.43,0,0,1-.53-.59,9.8,9.8,0,0,1-.89-1.25,14.55,14.55,0,0,1-1.8-5.4,28.53,28.53,0,0,1,.83-10.78,44.08,44.08,0,0,1,4-10.14,55.43,55.43,0,0,1,6.36-9.24A63.42,63.42,0,0,1,176-27.71a72.71,72.71,0,0,1,9.74-6.71,90.22,90.22,0,0,1,10.89-5.36,82.75,82.75,0,0,1,11.87-3.86,69.8,69.8,0,0,1,12.67-1.92,47.68,47.68,0,0,1,13.12,1,28,28,0,0,1,3.21.94,18.46,18.46,0,0,1,3.08,1.38,12.45,12.45,0,0,1,2.73,2,7.54,7.54,0,0,1,1.87,2.8Z"/><path class="cls-3" d="M457.47-6.29a5.14,5.14,0,0,0,1.11,2.21,8.47,8.47,0,0,0,1.87,1.61,19.11,19.11,0,0,0,4.49,2,51.14,51.14,0,0,0,9.6,1.9c3.23.37,6.46.56,9.67.64s6.4.06,9.57,0c6.33-.19,12.57-.68,18.7-1.33s12.15-1.48,18-2.45c11.81-1.93,23.17-4.37,34-7.27,5.41-1.46,10.69-3,15.81-4.76s10.08-3.6,14.81-5.7c2.36-1.05,4.66-2.16,6.87-3.35a52.72,52.72,0,0,0,6.22-3.88,26.37,26.37,0,0,0,2.64-2.21l.57-.59c.17-.19.36-.39.51-.59a8.41,8.41,0,0,0,.84-1.19,4.14,4.14,0,0,0,.48-1.11,2.44,2.44,0,0,0,.09-.9,2.33,2.33,0,0,0-.25-.79,3.47,3.47,0,0,0-.67-.84,6.55,6.55,0,0,0-1.05-.84c-.19-.14-.42-.26-.63-.39s-.44-.25-.67-.36a22.19,22.19,0,0,0-3-1.2,44.48,44.48,0,0,0-6.54-1.55,105.09,105.09,0,0,0-13.37-1.27c-4.42-.17-8.76-.16-13,0s-8.39.36-12.43.67c-8.08.62-15.75,1.53-23,2.59a342.59,342.59,0,0,0-38,7.67,185.2,185.2,0,0,0-26.74,9,71,71,0,0,0-8.89,4.6,26.09,26.09,0,0,0-5.61,4.48,10.65,10.65,0,0,0-1.46,2,6.54,6.54,0,0,0-.62,1.71,4.65,4.65,0,0,0-.07,1.1c0,.25,0,.37,0,.37l-.06-.37a5.62,5.62,0,0,1,0-1.12,6.36,6.36,0,0,1,.49-1.8,11.09,11.09,0,0,1,1.35-2.24,25.87,25.87,0,0,1,5.42-5,69.38,69.38,0,0,1,8.74-5.25A169.29,169.29,0,0,1,500-32.54a301.54,301.54,0,0,1,38.12-9c7.29-1.25,15-2.33,23.25-3.09q6.15-.57,12.66-.85c4.33-.18,8.78-.23,13.35-.08a107.41,107.41,0,0,1,14,1.28c1.2.2,2.41.44,3.62.72s2.44.61,3.67,1a27.87,27.87,0,0,1,3.7,1.5l.92.5c.31.19.62.36.92.58A11.27,11.27,0,0,1,616-38.54a8.49,8.49,0,0,1,1.57,2,7.28,7.28,0,0,1,.84,2.71,7.67,7.67,0,0,1-.26,2.77,9.08,9.08,0,0,1-1,2.3,12.47,12.47,0,0,1-1.32,1.87c-.23.29-.48.55-.72.82l-.75.76a30.16,30.16,0,0,1-3.19,2.64,58.2,58.2,0,0,1-6.85,4.2C602-17.18,599.57-16,597.1-15c-4.94,2.11-10.06,4-15.32,5.63S571.12-6.2,565.59-4.84A322.14,322.14,0,0,1,531,1.56q-9,1.17-18.3,1.83c-6.2.42-12.51.65-18.91.57-3.2,0-6.42-.16-9.66-.38S477.65,3,474.4,2.47A51.65,51.65,0,0,1,464.77.05a19.11,19.11,0,0,1-4.47-2.3A9.15,9.15,0,0,1,458.47-4a5.33,5.33,0,0,1-1-2.3Z"/><path class="cls-3" d="M619.93-23.72c.34,2.46.51,4.92.62,7.37s.12,4.9.06,7.32a109,109,0,0,1-1.29,14.32c-.37,2.35-.82,4.66-1.34,7s-1.13,4.53-1.82,6.75-1.45,4.38-2.3,6.51c-.22.53-.42,1.07-.65,1.59s-.46,1.05-.68,1.57-.48,1-.72,1.55l-.36.76-.39.76c-1,2-2.11,4-3.28,5.9l-.89,1.42c-.3.47-.62.92-.93,1.38l-.47.69-.49.68-1,1.34a72.2,72.2,0,0,1-8.78,9.64,72.16,72.16,0,0,1-10.1,7.63A76.56,76.56,0,0,1,574.31,66a91.51,91.51,0,0,1-11.11,3.85l-1.39.37c-.47.12-.92.25-1.39.35l-2.77.64-2.75.54c-.46.08-.91.19-1.37.25l-1.37.22c-1.81.32-3.63.52-5.43.75l-2.69.24-.67.06-.67,0-1.33.08-1.32.07-1.33,0-1.31,0H536.1l-2.6,0-2.57-.14A81.09,81.09,0,0,1,521,72.08a70.44,70.44,0,0,1-9.25-2.47,70.49,70.49,0,0,1-8.41-3.47,70.69,70.69,0,0,1-7.47-4.29A72.54,72.54,0,0,1,489.35,57c-2-1.68-3.87-3.41-5.59-5.16s-3.29-3.53-4.74-5.28c-.36-.45-.73-.88-1.07-1.32l-1-1.31c-.65-.89-1.3-1.75-1.9-2.62s-1.18-1.72-1.74-2.56-1.09-1.69-1.59-2.52c-1-1.66-1.92-3.27-2.75-4.84-1.67-3.12-3-6-4.1-8.66a96.48,96.48,0,0,1-4.2-12.21c-.37-1.4-.62-2.47-.77-3.18s-.22-1.08-.22-1.08.1.36.33,1.05.58,1.72,1.08,3.08a114,114,0,0,0,5.15,11.71c1.27,2.51,2.78,5.27,4.6,8.22.92,1.47,1.9,3,3,4.55.53.78,1.1,1.56,1.68,2.36s1.19,1.59,1.83,2.39,1.29,1.61,2,2.43l1.05,1.22c.35.42.73.81,1.09,1.22,1.48,1.63,3,3.27,4.78,4.87s3.55,3.18,5.52,4.71A71.1,71.1,0,0,0,498,58.45a70.25,70.25,0,0,0,7.15,3.84,67.94,67.94,0,0,0,8,3.08,67.61,67.61,0,0,0,8.71,2.17,80,80,0,0,0,9.37,1.12l2.43.11,2.45,0h.62l.62,0c.42,0,.84,0,1.25,0l1.26,0,1.26-.07,1.27-.07.63,0,.64-.06,2.56-.23c1.72-.21,3.45-.4,5.2-.7l1.31-.2c.44-.06.87-.16,1.31-.24.88-.17,1.76-.32,2.64-.5l2.64-.59c.45-.09.89-.21,1.33-.32l1.33-.35a88,88,0,0,0,10.59-3.5,75.79,75.79,0,0,0,10.34-5.12,70.25,70.25,0,0,0,9.69-6.94,70.2,70.2,0,0,0,8.6-8.87c.32-.41.65-.82,1-1.24l.49-.62.47-.64c.31-.43.63-.85.93-1.29l.91-1.32c1.18-1.78,2.32-3.61,3.36-5.52l.4-.72.38-.72.76-1.46.72-1.49c.25-.49.46-1,.7-1.5.91-2,1.76-4.09,2.52-6.21s1.47-4.29,2.1-6.49,1.18-4.46,1.67-6.74a116.49,116.49,0,0,0,2.09-14c.21-2.4.33-4.82.39-7.26s0-4.91-.13-7.38Z"/><path class="cls-3" d="M454.11,7.76c-1.26-.62-2.54-1.16-3.82-1.66s-2.57-1-3.85-1.37A50.74,50.74,0,0,0,438.7,2.9a31.78,31.78,0,0,0-7.57-.33,19.57,19.57,0,0,0-6.86,1.79,15.22,15.22,0,0,0-5.2,4.14,18.49,18.49,0,0,0-1.83,2.72,25.21,25.21,0,0,0-1.37,3,28.38,28.38,0,0,0-1,3.13c-.06.26-.14.52-.19.79l-.18.8-.08.39c0,.13-.05.26-.07.4s-.09.52-.13.78a23.31,23.31,0,0,0-.17,6.11,19.29,19.29,0,0,0,1.5,5.55,20.87,20.87,0,0,0,3,4.73,32.55,32.55,0,0,0,8.37,6.94c1.52.92,3.07,1.75,4.62,2.5s3.11,1.41,4.64,2c3.09,1.21,6.09,2.21,9,3,5.77,1.69,11,2.82,15.59,3.7s8.47,1.48,11.62,1.93,5.56.75,7.18.94l2.45.28s-.83.07-2.47.14-4.07.13-7.28.08-7.18-.23-11.88-.7a124.43,124.43,0,0,1-16.19-2.66,88.77,88.77,0,0,1-9.5-2.79c-1.64-.6-3.31-1.26-5-2a54.38,54.38,0,0,1-5.07-2.62,40.24,40.24,0,0,1-5-3.42A31.92,31.92,0,0,1,415,39.76a24.69,24.69,0,0,1-3.55-5.82A22.47,22.47,0,0,1,409.78,27a26.32,26.32,0,0,1,.43-7.24l.18-.89c0-.15.06-.3.1-.45l.11-.44c.07-.29.15-.58.23-.87s.17-.58.26-.88a31.87,31.87,0,0,1,1.27-3.49,27.87,27.87,0,0,1,1.76-3.38,21.54,21.54,0,0,1,2.38-3.13,18.21,18.21,0,0,1,3-2.65,17.83,17.83,0,0,1,3.57-1.93A21.36,21.36,0,0,1,431,.21a32.83,32.83,0,0,1,8,1,49.23,49.23,0,0,1,7.72,2.65c1.26.55,2.51,1.15,3.74,1.79s2.44,1.32,3.62,2.08Z"/><path class="cls-3" d="M496.51,71.68c1.08.53,2.19,1,3.29,1.4s2.21.8,3.32,1.15c2.22.71,4.43,1.3,6.63,1.8s4.38.91,6.54,1.24c.55.08,1.08.18,1.62.25l1.6.21,1.6.18c.53.06,1.06.12,1.59.16a126.27,126.27,0,0,0,23.78-.1c3.69-.36,7.24-.83,10.58-1.42l2.49-.48c.81-.17,1.62-.36,2.42-.54.39-.09.79-.16,1.18-.27l1.17-.31c.77-.2,1.55-.38,2.29-.61l2.23-.66L571,73l.53-.17.53-.19,1-.37,1-.36,1-.39c2.67-1,5.15-2.11,7.47-3.22s4.46-2.25,6.45-3.37,3.79-2.26,5.46-3.33,3.16-2.14,4.52-3.12,2.56-1.92,3.62-2.78c2.12-1.7,3.67-3.09,4.7-4s1.52-1.46,1.52-1.46-.37.61-1.21,1.75a56.57,56.57,0,0,1-4,4.8c-.94,1-2,2.12-3.28,3.31l-1,.89-.51.46-.52.46-1.09.95-1.16,1c-1.59,1.28-3.34,2.63-5.3,4s-4.09,2.69-6.44,4a78.61,78.61,0,0,1-7.63,3.74c-.35.15-.69.31-1,.45l-1.06.42-1.08.42-.55.21-.55.2-2.25.79c-.76.25-1.54.48-2.33.73s-1.59.46-2.4.68l-1.22.33c-.41.11-.83.19-1.25.29-.84.19-1.68.4-2.54.57l-2.61.49a110.86,110.86,0,0,1-11,1.26A103.48,103.48,0,0,1,522.3,81l-1.61-.3c-.54-.11-1.08-.21-1.62-.33L517.45,80c-.55-.12-1.09-.27-1.63-.4-2.17-.56-4.36-1.19-6.53-1.94s-4.35-1.6-6.49-2.58c-1.08-.48-2.14-1-3.19-1.57a35.87,35.87,0,0,1-3.1-1.82Z"/><path class="cls-3" d="M652.62,53.69a13.71,13.71,0,0,1,.23,3.73,16.29,16.29,0,0,1-.74,3.66,22.13,22.13,0,0,1-1.47,3.43,29,29,0,0,1-2,3.14c-.35.51-.73,1-1.11,1.47l-.58.71-.29.36-.31.34c-.8.93-1.65,1.8-2.51,2.66a66.06,66.06,0,0,1-5.45,4.74,101.57,101.57,0,0,1-11.76,7.81c-4,2.3-8.12,4.36-12.22,6.23A206.06,206.06,0,0,1,590,101.21q-6.06,1.88-12,3.38t-11.74,2.72a259.75,259.75,0,0,1-43.51,5.35A175.24,175.24,0,0,1,486,110.39a92.18,92.18,0,0,1-15.19-4,56.34,56.34,0,0,1-6.58-2.9c-.52-.29-1-.55-1.52-.85l-.74-.43-.72-.46-.36-.22-.34-.24c-.24-.16-.47-.31-.69-.47l-.67-.5-.33-.24-.32-.27a23.85,23.85,0,0,1-2.41-2.17,20.71,20.71,0,0,1-2-2.41,18.76,18.76,0,0,1-1.51-2.63,15.24,15.24,0,0,1-.94-2.76,14.09,14.09,0,0,1-.18-5.35,17.39,17.39,0,0,1,.56-2.39c.12-.37.26-.74.39-1.1s.28-.7.45-1A22.77,22.77,0,0,1,455,76.37a31.25,31.25,0,0,1,2.2-2.79,42.47,42.47,0,0,1,3.89-3.83c1.1-1,2-1.63,2.55-2.08l.89-.66-.81.75c-.54.5-1.34,1.25-2.34,2.29a45.35,45.35,0,0,0-3.5,4.08c-.64.86-1.29,1.81-1.92,2.86a22.43,22.43,0,0,0-1.7,3.51c-.13.32-.23.65-.34,1s-.21.68-.29,1a15,15,0,0,0-.37,2.16,12.53,12.53,0,0,0,.45,4.63,14.08,14.08,0,0,0,.94,2.3A15.49,15.49,0,0,0,456,93.79a22.07,22.07,0,0,0,1.88,2,23.1,23.1,0,0,0,2.26,1.83l.3.22.31.21.63.42.66.4.33.21.34.19.68.39.7.37c.47.25,1,.48,1.45.72a56,56,0,0,0,6.33,2.47,94.15,94.15,0,0,0,14.73,3.36,189.52,189.52,0,0,0,35.9,1.57,295.4,295.4,0,0,0,42.85-5.09q5.73-1.1,11.61-2.47t11.89-3a227.36,227.36,0,0,0,24.4-8.29c4.1-1.68,8.19-3.54,12.25-5.62a101.83,101.83,0,0,0,11.89-7.09A65.49,65.49,0,0,0,643,72.23c.88-.79,1.76-1.59,2.59-2.45l.31-.31.31-.33.6-.66c.39-.45.79-.9,1.16-1.37A27.37,27.37,0,0,0,650,64.17a21.35,21.35,0,0,0,1.63-3.24,15.8,15.8,0,0,0,.94-3.54,13.48,13.48,0,0,0,0-3.7Z"/></g><g class="cls-2"><path class="cls-3" d="M-102.59-6.29a5.14,5.14,0,0,0,1.11,2.21,8.47,8.47,0,0,0,1.87,1.61,19.11,19.11,0,0,0,4.49,2,51.14,51.14,0,0,0,9.6,1.9c3.23.37,6.46.56,9.67.64s6.4.06,9.57,0c6.33-.19,12.57-.68,18.7-1.33s12.14-1.48,18-2.45C-17.72-3.65-6.36-6.09,4.47-9c5.41-1.46,10.69-3,15.81-4.76s10.08-3.6,14.81-5.7c2.36-1.05,4.66-2.16,6.87-3.35a53.55,53.55,0,0,0,6.22-3.88,25.15,25.15,0,0,0,2.63-2.21c.2-.19.39-.39.58-.59s.36-.39.51-.59a8.41,8.41,0,0,0,.84-1.19,4.49,4.49,0,0,0,.48-1.11,2.44,2.44,0,0,0,.09-.9,2.33,2.33,0,0,0-.25-.79,3.47,3.47,0,0,0-.67-.84,6.55,6.55,0,0,0-1-.84c-.19-.14-.42-.26-.63-.39s-.44-.25-.67-.36a22.74,22.74,0,0,0-3-1.2,44.48,44.48,0,0,0-6.54-1.55,105.09,105.09,0,0,0-13.37-1.27c-4.42-.17-8.76-.16-13,0s-8.39.36-12.43.67c-8.08.62-15.75,1.53-23,2.59a342.59,342.59,0,0,0-38,7.67A185.2,185.2,0,0,0-86-20.6,71,71,0,0,0-94.85-16a26.09,26.09,0,0,0-5.61,4.48,10.65,10.65,0,0,0-1.46,2,6.54,6.54,0,0,0-.62,1.71,5.42,5.42,0,0,0-.08,1.1l0,.37-.06-.37a5.62,5.62,0,0,1,0-1.12,6,6,0,0,1,.49-1.8,10.65,10.65,0,0,1,1.35-2.24,25.87,25.87,0,0,1,5.42-5,69.38,69.38,0,0,1,8.74-5.25,168.9,168.9,0,0,1,26.6-10.47,301.54,301.54,0,0,1,38.12-9c7.29-1.25,15-2.33,23.25-3.09Q7.46-45.22,14-45.5c4.33-.18,8.78-.23,13.35-.08a107.72,107.72,0,0,1,14,1.28c1.2.2,2.41.44,3.62.72s2.44.61,3.67,1a27.75,27.75,0,0,1,3.69,1.5l.93.5c.31.19.61.36.92.58A11.27,11.27,0,0,1,56-38.54a8.49,8.49,0,0,1,1.57,2,7.09,7.09,0,0,1,.83,2.71A7.46,7.46,0,0,1,58.13-31a9.08,9.08,0,0,1-1,2.3,12.47,12.47,0,0,1-1.32,1.87c-.23.29-.48.55-.72.82l-.75.76a30.16,30.16,0,0,1-3.19,2.64,58.32,58.32,0,0,1-6.86,4.2C41.93-17.18,39.51-16,37-15,32.1-12.87,27-11,21.72-9.35S11.06-6.2,5.53-4.84A322.14,322.14,0,0,1-29,1.56q-9,1.17-18.3,1.83c-6.21.42-12.52.65-18.92.57-3.2,0-6.42-.16-9.65-.38S-82.41,3-85.66,2.47A51.94,51.94,0,0,1-95.3.05a19,19,0,0,1-4.46-2.3A8.89,8.89,0,0,1-101.59-4a5.21,5.21,0,0,1-1-2.3Z"/><path class="cls-3" d="M59.87-23.72c.34,2.46.51,4.92.62,7.37s.12,4.9.06,7.32A110.76,110.76,0,0,1,59.26,5.29c-.37,2.35-.82,4.66-1.34,7S56.78,16.77,56.1,19s-1.46,4.38-2.3,6.51c-.22.53-.42,1.07-.65,1.59l-.69,1.57c-.23.52-.47,1-.71,1.55l-.37.76-.38.76c-1,2-2.12,4-3.28,5.9l-.89,1.42c-.3.47-.63.92-.93,1.38l-.47.69-.49.68-1,1.34a71.6,71.6,0,0,1-8.79,9.64,71.5,71.5,0,0,1-10.09,7.63A76.56,76.56,0,0,1,14.25,66,91.06,91.06,0,0,1,3.13,69.89l-1.39.37c-.46.12-.92.25-1.38.35l-2.77.64-2.75.54c-.46.08-.91.19-1.37.25l-1.37.22c-1.82.32-3.63.52-5.43.75l-2.69.24-.67.06-.67,0-1.33.08L-20,73.5l-1.32,0-1.31,0H-24l-2.6,0-2.57-.14a80.84,80.84,0,0,1-9.93-1.29,70.44,70.44,0,0,1-9.25-2.47,70.49,70.49,0,0,1-8.41-3.47,69.7,69.7,0,0,1-7.47-4.29A72.54,72.54,0,0,1-70.71,57c-2-1.68-3.87-3.41-5.59-5.16s-3.29-3.53-4.74-5.28c-.36-.45-.73-.88-1.07-1.32l-1-1.31c-.65-.89-1.3-1.75-1.9-2.62s-1.18-1.72-1.75-2.56-1.08-1.69-1.58-2.52c-1-1.66-1.92-3.27-2.75-4.84-1.67-3.12-3-6-4.1-8.66a94.88,94.88,0,0,1-4.2-12.21c-.38-1.4-.62-2.47-.78-3.18s-.21-1.08-.21-1.08.1.36.33,1.05S-99.49,9-99,10.4a114,114,0,0,0,5.15,11.71c1.27,2.51,2.78,5.27,4.6,8.22.91,1.47,1.9,3,3,4.55.53.78,1.1,1.56,1.68,2.36s1.18,1.59,1.82,2.39,1.3,1.61,2,2.43l1.05,1.22c.35.42.72.81,1.09,1.22,1.48,1.63,3.05,3.27,4.77,4.87s3.56,3.18,5.53,4.71A69.67,69.67,0,0,0-62,58.45a69.2,69.2,0,0,0,7.15,3.84,67.94,67.94,0,0,0,8,3.08,67.61,67.61,0,0,0,8.71,2.17,80,80,0,0,0,9.37,1.12l2.42.11,2.46,0h.62l.62,0,1.25,0,1.26,0,1.26-.07,1.26-.07.64,0,.64-.06,2.56-.23c1.72-.21,3.45-.4,5.2-.7l1.31-.2c.44-.06.87-.16,1.31-.24.87-.17,1.76-.32,2.64-.5L-.74,66c.45-.09.89-.21,1.33-.32l1.32-.35a87.58,87.58,0,0,0,10.6-3.5,76.37,76.37,0,0,0,10.34-5.12,70.25,70.25,0,0,0,9.69-6.94,70.2,70.2,0,0,0,8.6-8.87c.32-.41.65-.82,1-1.24l.49-.62.47-.64c.31-.43.63-.85.93-1.29l.9-1.32c1.19-1.78,2.33-3.61,3.37-5.52l.4-.72.38-.72.76-1.46.72-1.49c.24-.49.46-1,.69-1.5.91-2,1.77-4.09,2.53-6.21s1.47-4.29,2.1-6.49S57,7.25,57.52,5a114.53,114.53,0,0,0,2.08-14q.32-3.6.4-7.26c0-2.44,0-4.91-.13-7.38Z"/><path class="cls-3" d="M-63.55,71.68c1.08.53,2.18,1,3.29,1.4s2.21.8,3.32,1.15c2.21.71,4.43,1.3,6.63,1.8s4.38.91,6.54,1.24c.54.08,1.08.18,1.62.25l1.6.21,1.6.18c.53.06,1.06.12,1.59.16A126.27,126.27,0,0,0-13.58,78c3.69-.36,7.24-.83,10.58-1.42l2.49-.48c.81-.17,1.62-.36,2.41-.54.4-.09.8-.16,1.19-.27L4.26,75c.77-.2,1.54-.38,2.29-.61l2.23-.66,2.16-.7.53-.17.53-.19,1-.37,1-.36,1-.39c2.67-1,5.16-2.11,7.48-3.22S27,66,29,64.91s3.79-2.26,5.46-3.33,3.16-2.14,4.52-3.12,2.56-1.92,3.62-2.78c2.12-1.7,3.67-3.09,4.7-4s1.52-1.46,1.52-1.46-.38.61-1.21,1.75a58.58,58.58,0,0,1-4,4.8c-.94,1-2,2.12-3.28,3.31l-1,.89-.51.46-.52.46-1.09.95-1.16,1c-1.59,1.28-3.34,2.63-5.3,4s-4.09,2.69-6.44,4a78.82,78.82,0,0,1-7.64,3.74c-.34.15-.68.31-1,.45l-1.07.42-1.07.42-.55.21-.55.2-2.25.79c-.76.25-1.54.48-2.33.73s-1.59.46-2.4.68l-1.22.33c-.41.11-.83.19-1.25.29-.84.19-1.68.4-2.54.57L-2.21,81q-5.31.88-11,1.26A103.48,103.48,0,0,1-37.76,81l-1.61-.3c-.54-.11-1.08-.21-1.62-.33L-42.62,80c-.54-.12-1.08-.27-1.62-.4-2.18-.56-4.36-1.19-6.53-1.94s-4.35-1.6-6.49-2.58c-1.08-.48-2.14-1-3.19-1.57a34.42,34.42,0,0,1-3.1-1.82Z"/><path class="cls-3" d="M92.56,53.69a13.71,13.71,0,0,1,.23,3.73A15.77,15.77,0,0,1,92,61.08a21.17,21.17,0,0,1-1.46,3.43,29,29,0,0,1-2,3.14c-.35.51-.74,1-1.11,1.47l-.58.71-.3.36-.3.34c-.8.93-1.65,1.8-2.51,2.66a69.51,69.51,0,0,1-5.45,4.74,101.57,101.57,0,0,1-11.76,7.81c-4,2.3-8.12,4.36-12.22,6.23a206.06,206.06,0,0,1-24.48,9.24q-6.06,1.88-12,3.38T6.17,107.31a259.73,259.73,0,0,1-43.52,5.35A175.19,175.19,0,0,1-74,110.39a91.92,91.92,0,0,1-15.19-4,57.25,57.25,0,0,1-6.59-2.9c-.51-.29-1-.55-1.51-.85-.25-.14-.5-.28-.74-.43l-.72-.46-.36-.22-.34-.24-.7-.47-.67-.5-.32-.24-.33-.27a24.86,24.86,0,0,1-2.4-2.17,20.71,20.71,0,0,1-2-2.41,17.82,17.82,0,0,1-1.51-2.63,15.24,15.24,0,0,1-.94-2.76,14.31,14.31,0,0,1-.19-5.35,17.39,17.39,0,0,1,.57-2.39c.12-.37.26-.74.39-1.1s.28-.7.44-1a23.61,23.61,0,0,1,2.07-3.57,29.53,29.53,0,0,1,2.2-2.79A42.47,42.47,0,0,1-99,69.75c1.1-1,2-1.63,2.55-2.08l.89-.66-.82.75c-.53.5-1.33,1.25-2.33,2.29a45.35,45.35,0,0,0-3.5,4.08A32.28,32.28,0,0,0-104.14,77a22.43,22.43,0,0,0-1.7,3.51c-.13.32-.23.65-.35,1s-.2.68-.28,1a15,15,0,0,0-.37,2.16,12.53,12.53,0,0,0,.45,4.63,13.25,13.25,0,0,0,.94,2.3A15.49,15.49,0,0,0-104,93.79a20.75,20.75,0,0,0,1.88,2,23.1,23.1,0,0,0,2.26,1.83l.3.22.31.21.63.42.65.4.34.21.33.19.69.39.7.37c.47.25,1,.48,1.45.72a56,56,0,0,0,6.33,2.47,93.89,93.89,0,0,0,14.73,3.36,189.52,189.52,0,0,0,35.9,1.57,295.4,295.4,0,0,0,42.85-5.09c3.81-.73,7.69-1.55,11.61-2.47s7.89-1.92,11.89-3a227.36,227.36,0,0,0,24.4-8.29c4.09-1.68,8.19-3.54,12.25-5.62a102.67,102.67,0,0,0,11.89-7.09,65.49,65.49,0,0,0,5.56-4.34c.88-.79,1.76-1.59,2.59-2.45l.31-.31.31-.33.6-.66c.39-.45.79-.9,1.16-1.37A27.37,27.37,0,0,0,90,64.17a21.35,21.35,0,0,0,1.63-3.24,15.8,15.8,0,0,0,.94-3.54,13.48,13.48,0,0,0,0-3.7Z"/></g></pattern></defs><rect class="cls-4" width="1914" height="1076.63"/></svg>